<?xml version="1.0" encoding="iso-8859-1"?>
<!-- Generator: Adobe Illustrator 16.0.0, SVG Export Plug-In . SVG Version: 6.00 Build 0)  -->
<!DOCTYPE svg PUBLIC "-//W3C//DTD SVG 1.1//EN" "http://www.w3.org/Graphics/SVG/1.1/DTD/svg11.dtd">
<svg version="1.1" id="Capa_1" xmlns="http://www.w3.org/2000/svg" xmlns:xlink="http://www.w3.org/1999/xlink" x="0px" y="0px"
	 width="32px" height="32px" viewBox="0 0 32 32" style="enable-background:new 0 0 32 32;" xml:space="preserve">
<g>
	<path d="M32,13.176c-0.598-0.397-1.18-0.816-1.747-1.258c-0.524,0.416-1.058,0.799-1.595,1.167
		c-0.283-1.219-0.564-2.503-0.848-3.331c-0.295,0.2-0.598,0.378-0.896,0.562c0.062-1.835,0.127-3.132,0.129-3.17l0.029-0.947
		l-0.852-0.397c-0.137-0.063-1.326-0.657-1.326-2.098V2.31H23.5c-0.92,0-5.125-0.036-6.824-0.052
		c-0.309-0.002-0.548-0.004-0.742,0.005V2.252l-0.083,0.001C15.057,2.26,9.497,2.31,8.42,2.31H7.025v1.396
		c0,1.439-1.189,2.034-1.309,2.09L4.828,6.18l0.049,0.967c0.002,0.037,0.066,1.312,0.128,3.118C4.721,10.09,4.436,9.922,4.156,9.732
		c-0.283,0.827-0.565,2.11-0.848,3.328c-0.525-0.359-1.048-0.735-1.561-1.143C1.18,12.359,0.598,12.778,0,13.176
		c0.002,0.968,0.023,2.642,0.065,3.622c1.604,1.274,3.266,2.337,4.966,3.197c-0.043,0.771-0.105,1.442-0.193,1.952
		c-0.617,3.589,4.225,5.205,7.76,6.387c0.646,0.216,3.366,1.414,3.366,1.414s2.716-1.2,3.358-1.414
		c3.535-1.182,8.377-2.799,7.76-6.389c-0.086-0.5-0.146-1.155-0.191-1.908c1.729-0.868,3.418-1.944,5.045-3.239
		C31.977,15.816,31.998,14.144,32,13.176z M7.703,7.842c0.762-0.561,1.57-1.472,1.926-2.749c2.156-0.014,6.082-0.05,6.305-0.052
		c0,0,4.128,0.037,6.357,0.052c0.355,1.277,1.165,2.188,1.927,2.748c-0.038,0.858-0.097,2.291-0.141,3.954
		c-5.287,2.298-10.952,2.285-16.235-0.036C7.798,10.111,7.74,8.693,7.703,7.842z M18.438,25.688
		c-0.61,0.205-2.416,1.019-2.416,1.019s-1.936-0.813-2.539-1.017c-1.67-0.559-6.107-2.039-5.896-3.27
		c0.174-1.013,0.263-2.536,0.299-4.236c5.284,2.029,10.862,2.039,16.149,0.029c0.037,1.688,0.125,3.199,0.299,4.206
		C24.545,23.648,20.107,25.13,18.438,25.688z"/>
</g>
<g>
</g>
<g>
</g>
<g>
</g>
<g>
</g>
<g>
</g>
<g>
</g>
<g>
</g>
<g>
</g>
<g>
</g>
<g>
</g>
<g>
</g>
<g>
</g>
<g>
</g>
<g>
</g>
<g>
</g>
</svg>
