<?xml version="1.0" encoding="iso-8859-1"?>
<!-- Generator: Adobe Illustrator 16.0.0, SVG Export Plug-In . SVG Version: 6.00 Build 0)  -->
<!DOCTYPE svg PUBLIC "-//W3C//DTD SVG 1.1//EN" "http://www.w3.org/Graphics/SVG/1.1/DTD/svg11.dtd">
<svg version="1.1" id="Capa_1" xmlns="http://www.w3.org/2000/svg" xmlns:xlink="http://www.w3.org/1999/xlink" x="0px" y="0px"
	 width="32px" height="32px" viewBox="0 0 32 32" style="enable-background:new 0 0 32 32;" xml:space="preserve">
<g>
	<path d="M32,13.1c-0.967-0.343-1.934-0.592-2.9-0.766c0-0.919,0-1.838,0-2.757c-1.834-0.33-3.668-0.382-5.504-0.276
		c-0.164-1.005-0.289-1.76-0.332-2.011l-0.148-0.888L7.896,6.396l-0.154,0.88C7.633,7.899,7.49,9.615,7.24,11.428
		c-1.466,0.027-2.932-0.062-4.397-0.329c0,0.919,0,1.837,0,2.756C1.896,13.682,0.948,13.436,0,13.1
		c0.168,1.003,0.4,2.205,0.568,3.203C0.4,17.25,0.168,17.996,0,18.938c2.481,0.881,4.962,1.146,7.443,1.082
		c1.458,2.476,4.36,5.583,8.128,5.583c5.277,0,9.301-5.143,9.301-7.242c0-0.12-0.011-0.295-0.029-0.508
		c2.386-0.035,4.771,0.238,7.157,1.085c-0.168-1.062-0.336-2.122-0.505-3.179C31.664,14.871,31.832,13.983,32,13.1z M9.683,8.522
		l11.631,0.006c0.051,0.309,0.104,0.631,0.156,0.959c-4.019,0.463-8.119,1.481-12.138,1.831C9.459,10.318,9.531,9.402,9.683,8.522z
		 M15.571,23.478c-4.005,0-6.944-5.211-7.042-6.112c0-0.037,9.228-1.703,13.838-2.133c0.225,1.54,0.379,2.743,0.379,3.12
		C22.672,19.344,19.65,23.478,15.571,23.478z"/>
</g>
<g>
</g>
<g>
</g>
<g>
</g>
<g>
</g>
<g>
</g>
<g>
</g>
<g>
</g>
<g>
</g>
<g>
</g>
<g>
</g>
<g>
</g>
<g>
</g>
<g>
</g>
<g>
</g>
<g>
</g>
</svg>
