<?xml version="1.0" encoding="iso-8859-1"?>
<!-- Generator: Adobe Illustrator 16.0.0, SVG Export Plug-In . SVG Version: 6.00 Build 0)  -->
<!DOCTYPE svg PUBLIC "-//W3C//DTD SVG 1.1//EN" "http://www.w3.org/Graphics/SVG/1.1/DTD/svg11.dtd">
<svg version="1.1" id="Capa_1" xmlns="http://www.w3.org/2000/svg" xmlns:xlink="http://www.w3.org/1999/xlink" x="0px" y="0px"
	 width="32.002px" height="32.002px" viewBox="0 0 32.002 32.002" style="enable-background:new 0 0 32.002 32.002;"
	 xml:space="preserve">
<g>
	<path d="M31.495,17.996c0.169-0.89,0.337-1.776,0.506-2.662c-0.874-0.31-1.747-0.539-2.621-0.708v-3.048
		c0,0-2.751-0.372-4.144-0.372c-0.08,0-0.16,0.004-0.241,0.005c0.104-0.416,0.188-0.903,0.252-1.437
		c0.146-1.394-0.121-2.947-0.121-2.947s-1.554-0.267-2.944-0.119c-0.716,0.085-1.361,0.203-1.845,0.361
		c-0.237,0.071-0.765,0.259-0.765,0.259s-0.122-0.283-0.355-0.725c-0.113-0.227-0.263-0.479-0.441-0.734
		c-0.183-0.259-0.377-0.55-0.611-0.824c-0.289-0.324-0.896-1.039-1.4-1.547c-0.324-0.326-0.658-0.563-0.658-0.563
		s-0.429,0.304-0.797,0.625c-0.568,0.495-1.197,1.126-1.476,1.485c-0.461,0.593-0.823,1.101-1.049,1.558
		c-0.232,0.441-0.357,0.725-0.357,0.725s-0.526-0.188-0.764-0.259c-0.481-0.158-1.127-0.277-1.843-0.361
		c-1.394-0.147-2.946,0.12-2.946,0.12s-0.268,1.553-0.12,2.946c0.085,0.715,0.203,1.361,0.362,1.843
		c0.07,0.238,0.135,0.428,0.18,0.558c0.043,0.13,0.078,0.206,0.078,0.206s-0.283,0.122-0.725,0.356
		C6.422,12.852,6.171,13,5.915,13.181c-0.08,0.056-0.168,0.124-0.252,0.184c-0.963-0.043-1.878-0.144-2.77-0.307l-0.33-0.06v3.036
		c-0.854-0.17-1.709-0.396-2.563-0.7c0.168,1.005,0.336,2.006,0.504,3.002c-0.167,0.951-0.335,1.896-0.503,2.838
		c2.247,0.798,4.494,1.089,6.742,1.091c-0.119,1.358,0.131,2.815,0.131,2.815s1.553,0.268,2.946,0.119
		c0.715-0.084,1.361-0.203,1.843-0.361c0.238-0.07,0.764-0.258,0.764-0.258s0.124,0.282,0.356,0.725
		c0.115,0.227,0.263,0.479,0.443,0.732c0.181,0.26,0.376,0.551,0.61,0.825c0.475,0.531,1.988,2.089,2.174,2.204
		c0.295-0.134,1.707-1.686,2.157-2.205c0.444-0.568,0.821-1.101,1.049-1.558c0.231-0.441,0.356-0.726,0.356-0.726H19.57l0,0h0.002
		c0,0,0.076,0.035,0.205,0.08c0.132,0.045,0.32,0.107,0.56,0.18c0.481,0.158,1.128,0.277,1.843,0.361
		c1.395,0.146,2.947-0.121,2.947-0.121s0.268-1.553,0.12-2.945c-0.085-0.715-0.203-1.361-0.362-1.844
		c-0.021-0.074-0.043-0.138-0.062-0.201c2.393-0.038,4.785,0.236,7.18,1.084C31.832,20.111,31.664,19.052,31.495,17.996z
		 M16.259,8.047c2.656,0,5.017,1.288,6.496,3.268c-0.338,0.027-0.677,0.059-1.015,0.095c-1.336-1.538-3.29-2.522-5.481-2.522
		c-2.973,0-5.523,1.797-6.65,4.357c-0.313,0.028-0.625,0.054-0.938,0.074C9.827,10.247,12.786,8.047,16.259,8.047z M16.259,24.276
		c-3.205,0-5.973-1.872-7.289-4.575c0.301-0.021,0.603-0.051,0.904-0.08c1.232,2.268,3.627,3.815,6.385,3.815
		c3.491,0,6.401-2.478,7.101-5.763c0.289-0.021,0.576-0.036,0.863-0.049C23.527,21.401,20.23,24.276,16.259,24.276z M28.82,17.319
		c-1.139-0.185-2.313-0.274-3.584-0.274c-3.104,0-6.245,0.559-9.285,1.098c-3.016,0.535-6.134,1.088-9.188,1.088
		c-1.293,0-2.485-0.095-3.64-0.292v-5.273c1.156,0.19,2.351,0.284,3.642,0.284c3.104,0,6.246-0.558,9.285-1.097
		c3.017-0.535,6.134-1.088,9.188-1.088c1.271,0,2.447,0.092,3.584,0.282v5.273H28.82z"/>
</g>
<g>
</g>
<g>
</g>
<g>
</g>
<g>
</g>
<g>
</g>
<g>
</g>
<g>
</g>
<g>
</g>
<g>
</g>
<g>
</g>
<g>
</g>
<g>
</g>
<g>
</g>
<g>
</g>
<g>
</g>
</svg>
