<?xml version="1.0" encoding="iso-8859-1"?>
<!-- Generator: Adobe Illustrator 16.0.0, SVG Export Plug-In . SVG Version: 6.00 Build 0)  -->
<!DOCTYPE svg PUBLIC "-//W3C//DTD SVG 1.1//EN" "http://www.w3.org/Graphics/SVG/1.1/DTD/svg11.dtd">
<svg version="1.1" id="Capa_1" xmlns="http://www.w3.org/2000/svg" xmlns:xlink="http://www.w3.org/1999/xlink" x="0px" y="0px"
	 width="32.004px" height="32.004px" viewBox="0 0 32.004 32.004" style="enable-background:new 0 0 32.004 32.004;"
	 xml:space="preserve">
<g>
	<path d="M32,14.951c-0.869-0.308-1.738-0.538-2.609-0.707v-3.059l-0.238-0.043c-1.241-0.223-2.521-0.332-3.914-0.332
		c-0.238,0-0.479,0.009-0.719,0.016v-0.003c-0.01-0.035-0.021-0.071-0.029-0.106l-0.008-0.027c-0.01-0.03-0.02-0.062-0.03-0.092
		l-0.015-0.041l-0.028-0.074l-0.022-0.058l-0.023-0.049c-0.014-0.028-0.026-0.055-0.04-0.081l-0.007-0.013
		c-0.062-0.121-0.133-0.24-0.219-0.354l-0.014-0.02l-0.008-0.011c-0.227-0.309-0.501-0.549-0.782-0.706
		c-0.28-0.159-0.571-0.234-0.838-0.232h-0.003c-0.005,0-0.012,0-0.018-0.001c-0.011,0.001-0.021,0.001-0.033,0h-0.004
		c-0.33,0.009-0.703-0.098-1.058-0.303L21.34,8.658c-0.059-0.035-0.117-0.074-0.176-0.115c-0.402-0.298-0.689-0.675-0.809-1.051
		l-0.008-0.027c-0.076-0.243-0.229-0.488-0.451-0.707h-0.002c-0.028-0.029-0.06-0.057-0.09-0.083l-0.01-0.009
		c-0.027-0.024-0.057-0.047-0.087-0.07l-0.021-0.018l-0.078-0.057l-0.034-0.024l-0.068-0.043l-0.052-0.032l-0.048-0.027
		c-0.027-0.015-0.054-0.029-0.08-0.042l-0.013-0.007c-0.121-0.061-0.248-0.115-0.383-0.159l-0.024-0.008l-0.015-0.005
		c-0.365-0.115-0.729-0.148-1.049-0.111c-0.32,0.039-0.6,0.146-0.812,0.306L17.029,6.37l0,0c-0.006,0.004-0.01,0.007-0.016,0.01
		c-0.008,0.008-0.017,0.014-0.027,0.02l-0.002,0.002c-0.263,0.203-0.627,0.334-1.034,0.377v0.004
		C15.899,6.788,15.845,6.79,15.79,6.79c-0.054,0-0.107-0.002-0.16-0.007V6.779c-0.406-0.043-0.771-0.174-1.033-0.377L14.594,6.4
		c-0.01-0.006-0.02-0.012-0.027-0.02c-0.004-0.003-0.01-0.006-0.015-0.01l0,0L14.55,6.369c-0.214-0.16-0.494-0.268-0.815-0.306
		c-0.319-0.038-0.682-0.004-1.048,0.111l-0.014,0.005L12.65,6.187c-0.136,0.043-0.265,0.098-0.385,0.159l-0.012,0.007
		c-0.027,0.013-0.054,0.027-0.08,0.042l-0.048,0.027l-0.053,0.032l-0.067,0.043L11.97,6.522l-0.079,0.056L11.87,6.596
		c-0.029,0.023-0.058,0.046-0.086,0.07l-0.009,0.009c-0.032,0.026-0.062,0.054-0.09,0.083h-0.001
		c-0.224,0.219-0.377,0.464-0.453,0.707l-0.008,0.027c-0.118,0.376-0.404,0.753-0.808,1.051c-0.058,0.042-0.116,0.08-0.175,0.115
		l-0.003-0.003C9.883,8.86,9.511,8.967,9.18,8.958H9.176c-0.011,0.001-0.022,0-0.033,0c-0.006,0-0.012,0.001-0.018,0.001H9.124
		C8.856,8.956,8.567,9.032,8.285,9.191C8.004,9.348,7.731,9.588,7.504,9.897l-0.01,0.011L7.48,9.929
		c-0.084,0.114-0.156,0.233-0.218,0.353l-0.006,0.013c-0.013,0.026-0.027,0.053-0.039,0.081l-0.022,0.049l-0.024,0.058l-0.029,0.074
		l-0.015,0.041c-0.01,0.031-0.021,0.063-0.029,0.092L7.09,10.717c-0.011,0.036-0.021,0.071-0.028,0.106l-0.003,0.014
		c-0.009,0.04-0.018,0.079-0.024,0.119v0.001H7.034c-0.054,0.307-0.033,0.597,0.049,0.839l0.009,0.026
		c0.111,0.332,0.107,0.744,0.001,1.166c-0.109,0.002-0.22,0.008-0.329,0.008c-1.378,0-2.644-0.108-3.868-0.333l-0.343-0.062v3.047
		C1.702,15.479,0.852,15.253,0,14.951c0.169,1.004,0.337,2.004,0.505,3C0.337,18.9,0.169,19.847,0,20.79
		c2.446,0.867,4.894,1.136,7.339,1.083c0.034,0.053,0.056,0.108,0.093,0.16l0.01,0.013l0.014,0.021
		c0.084,0.114,0.175,0.221,0.27,0.315l0.011,0.009c0.021,0.021,0.043,0.042,0.065,0.063l0.041,0.035l0.046,0.041l0.063,0.052
		l0.034,0.025l0.078,0.058l0.022,0.014c0.031,0.021,0.063,0.041,0.093,0.061l0.012,0.008c0.036,0.021,0.071,0.041,0.106,0.06l0,0
		l0.001,0.001c0.277,0.146,0.559,0.215,0.813,0.211l0.028-0.001c0.394-0.003,0.84,0.154,1.248,0.446
		c0.406,0.303,0.694,0.686,0.808,1.065l0.002,0.003c0.004,0.012,0.007,0.022,0.01,0.032c0.002,0.005,0.005,0.011,0.006,0.017
		l0.001,0.002c0.08,0.254,0.243,0.505,0.481,0.724c0.238,0.218,0.551,0.403,0.916,0.522c0.135,0.044,0.271,0.075,0.404,0.097
		l0.014,0.003c0.03,0.004,0.06,0.007,0.089,0.011l0.055,0.006l0.063,0.005l0.08,0.005l0.042,0.001h0.098l0.027-0.001
		c0.037-0.001,0.074-0.004,0.11-0.007l0.014-0.001c0.042-0.004,0.081-0.009,0.121-0.015h0.001l0,0
		c0.31-0.046,0.577-0.155,0.781-0.307l0.022-0.018c0.313-0.232,0.763-0.369,1.259-0.375c0.497,0.005,0.947,0.143,1.26,0.375
		l0.021,0.018c0.203,0.151,0.474,0.261,0.781,0.307h0.002l0,0c0.039,0.005,0.08,0.011,0.121,0.015l0.014,0.001
		c0.035,0.003,0.072,0.006,0.109,0.007l0.027,0.001h0.098l0.043-0.001l0.08-0.005l0.062-0.005l0.055-0.006
		c0.029-0.003,0.059-0.007,0.09-0.011l0.014-0.003c0.134-0.021,0.27-0.053,0.404-0.097c0.364-0.119,0.678-0.305,0.916-0.522
		c0.237-0.219,0.4-0.47,0.48-0.724l0.001-0.002c0.001-0.006,0.004-0.012,0.007-0.017c0.002-0.01,0.005-0.021,0.01-0.032v-0.003
		c0.115-0.38,0.402-0.763,0.809-1.065c0.408-0.292,0.854-0.449,1.25-0.446l0.027,0.001c0.254,0.003,0.535-0.067,0.812-0.211v-0.001
		h0.001c0.034-0.019,0.069-0.038,0.104-0.06l0.014-0.008c0.029-0.02,0.062-0.04,0.092-0.061l0.023-0.014l0.078-0.058l0.033-0.025
		l0.062-0.052l0.048-0.041l0.041-0.035c0.021-0.021,0.043-0.041,0.063-0.063l0.01-0.009c0.097-0.095,0.188-0.202,0.271-0.315
		l0.014-0.021l0.01-0.013c0.225-0.312,0.367-0.645,0.431-0.962c0.063-0.315,0.049-0.614-0.036-0.868l-0.001-0.002
		c-0.002-0.005-0.003-0.011-0.005-0.017c-0.004-0.01-0.01-0.021-0.012-0.031V20.15c-0.049-0.139-0.075-0.293-0.086-0.456
		c0,0,0.002-0.002,0.004-0.002c0,0.006,0,0.012,0,0.018c2.52-0.074,5.039,0.188,7.559,1.081c-0.168-1.062-0.337-2.122-0.504-3.179
		C31.663,16.722,31.832,15.835,32,14.951z M10.382,10.575c0.706-0.706,1.528-1.261,2.444-1.648c0.939-0.397,1.936-0.599,2.963-0.604
		c1.028,0.004,2.023,0.207,2.964,0.604c0.916,0.387,1.738,0.942,2.444,1.648c0.144,0.144,0.269,0.303,0.398,0.458
		c-0.236,0.026-0.472,0.055-0.707,0.085c-1.289-1.35-3.093-2.205-5.101-2.213c-2.774,0.011-5.174,1.625-6.333,3.958
		c-0.224,0.021-0.448,0.039-0.673,0.055C9.168,12.044,9.702,11.256,10.382,10.575z M3.133,13.294
		c1.153,0.19,2.345,0.283,3.631,0.283c3.104,0,6.248-0.558,9.287-1.097c3.016-0.535,6.135-1.088,9.188-1.088
		c1.269,0,2.438,0.092,3.572,0.28v5.25c-1.135-0.184-2.308-0.272-3.57-0.272c-3.104,0-6.249,0.559-9.289,1.098
		c-3.015,0.534-6.134,1.088-9.188,1.088c-1.289,0-2.479-0.096-3.63-0.29V13.294z M23.141,18.184L23.141,18.184
		c-0.082,0.28-0.181,0.554-0.295,0.824c-0.388,0.917-0.941,1.739-1.647,2.446c-0.706,0.705-1.528,1.261-2.444,1.646
		c-0.939,0.397-1.936,0.6-2.964,0.604c-1.027-0.005-2.023-0.207-2.963-0.604c-0.916-0.387-1.738-0.942-2.444-1.646
		c-0.62-0.621-1.114-1.337-1.49-2.121c0.21-0.016,0.419-0.033,0.628-0.053c1.182,2.27,3.542,3.831,6.27,3.842
		c3.45-0.015,6.314-2.502,6.938-5.777c0.203-0.017,0.403-0.03,0.604-0.044C23.266,17.693,23.188,18.013,23.141,18.184z"/>
</g>
<g>
</g>
<g>
</g>
<g>
</g>
<g>
</g>
<g>
</g>
<g>
</g>
<g>
</g>
<g>
</g>
<g>
</g>
<g>
</g>
<g>
</g>
<g>
</g>
<g>
</g>
<g>
</g>
<g>
</g>
</svg>
