<?xml version="1.0" encoding="iso-8859-1"?>
<!-- Generator: Adobe Illustrator 16.0.0, SVG Export Plug-In . SVG Version: 6.00 Build 0)  -->
<!DOCTYPE svg PUBLIC "-//W3C//DTD SVG 1.1//EN" "http://www.w3.org/Graphics/SVG/1.1/DTD/svg11.dtd">
<svg version="1.1" id="Capa_1" xmlns="http://www.w3.org/2000/svg" xmlns:xlink="http://www.w3.org/1999/xlink" x="0px" y="0px"
	 width="32px" height="32px" viewBox="0 0 32 32" style="enable-background:new 0 0 32 32;" xml:space="preserve">
<g>
	<path d="M21.579,25.076c0,0-4.289-2.445-4.214-12.16h0.489c0.289,0,0.523-0.234,0.523-0.523s-0.234-0.523-0.523-0.523h-0.466
		c0.175-0.931,1.767-1.832,3.456-2.58c2.256-0.998,3.34-3.727,3.34-9.29c-3.456,0-7.769,0-7.769,0s-5.145,0-8.6,0
		c0,5.216,1.626,7.982,3.581,9.054c1.955,1.072,3.49,1.885,3.665,2.815H14.48c-0.29,0-0.524,0.234-0.524,0.523
		s0.234,0.523,0.524,0.523h0.605c0.077,9.715-4.212,12.16-4.212,12.16v0.465H9.068V32h14.313v-6.459h-1.805v-0.465H21.579z
		 M21.985,30.604H10.464v-3.666h11.521V30.604z"/>
</g>
<g>
</g>
<g>
</g>
<g>
</g>
<g>
</g>
<g>
</g>
<g>
</g>
<g>
</g>
<g>
</g>
<g>
</g>
<g>
</g>
<g>
</g>
<g>
</g>
<g>
</g>
<g>
</g>
<g>
</g>
</svg>
