<?xml version="1.0" encoding="iso-8859-1"?>
<!-- Generator: Adobe Illustrator 16.0.0, SVG Export Plug-In . SVG Version: 6.00 Build 0)  -->
<!DOCTYPE svg PUBLIC "-//W3C//DTD SVG 1.1//EN" "http://www.w3.org/Graphics/SVG/1.1/DTD/svg11.dtd">
<svg version="1.1" id="Capa_1" xmlns="http://www.w3.org/2000/svg" xmlns:xlink="http://www.w3.org/1999/xlink" x="0px" y="0px"
	 width="32px" height="32px" viewBox="0 0 32 32" style="enable-background:new 0 0 32 32;" xml:space="preserve">
<g>
	<path d="M31.496,17.908c0.168-0.891,0.336-1.777,0.504-2.661c-0.967-0.343-1.934-0.591-2.9-0.765c0-0.919,0-1.839,0-2.758
		c-1.256-0.226-2.514-0.319-3.771-0.323c-0.163-1.668-0.304-2.874-0.317-2.993L24.951,7.9l-0.488-0.15
		c-0.025-0.008-2.518-0.799-2.518-2.895V4.072H10.293v0.784c0,2.077-2.418,2.863-2.518,2.895l-0.488,0.15l-0.06,0.508
		c-0.02,0.166-0.287,2.455-0.518,5.171c-1.289-0.003-2.578-0.099-3.865-0.334c0,0.919,0,1.838,0,2.756
		C1.896,15.83,0.947,15.583,0,15.247c0.169,1.003,0.337,2.005,0.505,3.002C0.337,19.198,0.169,20.145,0,21.088
		c2.366,0.838,4.732,1.115,7.098,1.086c1.148,1.623,3.452,2.686,5.418,3.588c1.133,0.52,3.601,2.166,3.601,2.166
		s2.55-1.683,3.605-2.166c2.729-1.252,6.119-2.811,6.147-5.756c2.044,0.053,4.087,0.355,6.13,1.082
		C31.832,20.024,31.664,18.965,31.496,17.908z M11.787,5.646c0.807,0.009,7.867,0.009,8.664,0c0.382,2.01,2.171,3.026,3.057,3.414
		c0.055,0.492,0.146,1.344,0.249,2.381c-0.301,0.016-0.603,0.036-0.901,0.06c-0.119-1.043-0.209-1.74-0.209-1.74
		s-2.508-0.68-2.707-3.066c-1.109,0-6.968-0.011-7.647-0.011c-0.257,2.478-2.72,3.059-2.72,3.059s-0.17,1.675-0.331,3.731
		c-0.317,0.027-0.636,0.048-0.954,0.065c0.17-1.961,0.355-3.684,0.443-4.479C9.616,8.671,11.405,7.655,11.787,5.646z M19.07,24.336
		c-1.223,0.562-2.273,1.043-2.951,1.607c-0.678-0.564-1.728-1.046-2.95-1.607c-2.333-1.07-5.236-2.402-5.236-4.367
		c0-0.184,0.003-0.377,0.005-0.574c0.344-0.016,0.688-0.036,1.031-0.062c0.167,2.114,2.34,3.256,4.363,4.186
		c0.872,0.399,2.871,1.31,2.871,1.31s1.857-0.937,2.67-1.31c2.105-0.967,4.557-2.196,4.557-4.479c0-0.518-0.021-1.11-0.055-1.739
		c0.281-0.019,0.562-0.033,0.844-0.043c0.055,0.973,0.088,1.904,0.088,2.713C24.307,21.934,21.402,23.266,19.07,24.336z"/>
</g>
<g>
</g>
<g>
</g>
<g>
</g>
<g>
</g>
<g>
</g>
<g>
</g>
<g>
</g>
<g>
</g>
<g>
</g>
<g>
</g>
<g>
</g>
<g>
</g>
<g>
</g>
<g>
</g>
<g>
</g>
</svg>
