<?xml version="1.0" encoding="iso-8859-1"?>
<!-- Generator: Adobe Illustrator 16.0.0, SVG Export Plug-In . SVG Version: 6.00 Build 0)  -->
<!DOCTYPE svg PUBLIC "-//W3C//DTD SVG 1.1//EN" "http://www.w3.org/Graphics/SVG/1.1/DTD/svg11.dtd">
<svg version="1.1" id="Capa_1" xmlns="http://www.w3.org/2000/svg" xmlns:xlink="http://www.w3.org/1999/xlink" x="0px" y="0px"
	 width="32px" height="32px" viewBox="0 0 32 32" style="enable-background:new 0 0 32 32;" xml:space="preserve">
<g>
	<path d="M32,14.786c-0.967-0.343-1.934-0.592-2.9-0.765c0-0.92,0-1.84,0-2.759c-1.465-0.263-2.93-0.339-4.395-0.31
		c-0.137-1.357-0.247-2.31-0.26-2.414l-0.059-0.5l-0.479-0.146c-0.024-0.007-2.474-0.785-2.474-2.845V4.277h-0.771
		c-0.481,0-9.433,0-9.914,0H9.98v0.77c0,2.041-2.375,2.814-2.474,2.845L7.027,8.04l-0.059,0.5C6.95,8.692,6.72,10.673,6.504,13.111
		c-1.221-0.013-2.441-0.104-3.661-0.326c0,0.918,0,1.838,0,2.757C1.895,15.369,0.947,15.124,0,14.786
		c0.168,1.003,0.336,2.005,0.504,3.002C0.336,18.736,0.168,19.683,0,20.625c2.205,0.783,4.411,1.08,6.617,1.094
		c1.027,1.795,3.479,2.926,5.548,3.875c1.114,0.511,3.539,2.129,3.539,2.129s2.506-1.652,3.545-2.129
		c2.692-1.235,6.044-2.772,6.044-5.691c0-0.117-0.004-0.245-0.005-0.367c2.237,0.006,4.476,0.299,6.712,1.092
		c-0.168-1.062-0.337-2.121-0.505-3.18C31.663,16.557,31.832,15.67,32,14.786z M8.446,9.177c0.87-0.381,2.628-1.379,3.003-3.354
		c0.793,0.007,7.723,0.007,8.516,0c0.375,1.975,2.133,2.974,3.003,3.354c0.046,0.403,0.115,1.051,0.196,1.845
		c-5.037,0.356-10.074,1.83-15.11,2.063C8.207,11.366,8.366,9.893,8.446,9.177z M18.605,24.192
		c-1.199,0.551-2.232,1.024-2.898,1.578c-0.666-0.554-1.698-1.027-2.899-1.578c-2.293-1.052-5.146-2.36-5.146-4.291
		c0-0.302,0.006-0.626,0.015-0.959c5.323-0.179,10.646-1.813,15.97-2.112c0.064,1.104,0.107,2.165,0.107,3.071
		C23.753,21.832,20.898,23.141,18.605,24.192z"/>
</g>
<g>
</g>
<g>
</g>
<g>
</g>
<g>
</g>
<g>
</g>
<g>
</g>
<g>
</g>
<g>
</g>
<g>
</g>
<g>
</g>
<g>
</g>
<g>
</g>
<g>
</g>
<g>
</g>
<g>
</g>
</svg>
