<?xml version="1.0" encoding="iso-8859-1"?>
<!-- Generator: Adobe Illustrator 16.0.0, SVG Export Plug-In . SVG Version: 6.00 Build 0)  -->
<!DOCTYPE svg PUBLIC "-//W3C//DTD SVG 1.1//EN" "http://www.w3.org/Graphics/SVG/1.1/DTD/svg11.dtd">
<svg version="1.1" id="Capa_1" xmlns="http://www.w3.org/2000/svg" xmlns:xlink="http://www.w3.org/1999/xlink" x="0px" y="0px"
	 width="31.877px" height="31.877px" viewBox="0 0 31.877 31.877" style="enable-background:new 0 0 31.877 31.877;"
	 xml:space="preserve">
<g>
	<path d="M22.395,14.54V9.65h-1.924L27.221,0h-8.405c0,0-2.739,4.67-2.863,4.483c-0.002-0.003-0.01-0.017-0.014-0.021
		c-0.004,0.005-0.012,0.019-0.014,0.021C15.801,4.67,13.061,0,13.061,0H4.656l6.749,9.65H9.481v4.89
		c-2.112,1.808-3.455,4.487-3.455,7.483c0,5.441,4.41,9.854,9.852,9.854c0.021,0,0.04-0.003,0.061-0.003s0.04,0.003,0.061,0.003
		c5.441,0,9.851-4.411,9.851-9.854C25.85,19.027,24.508,16.348,22.395,14.54z M20.901,13.486c-1.445-0.831-3.116-1.314-4.902-1.314
		c-0.021,0-0.04,0.004-0.061,0.004s-0.04-0.004-0.061-0.004c-1.786,0-3.457,0.483-4.902,1.314v-2.342h4.963h4.963V13.486z"/>
</g>
<g>
</g>
<g>
</g>
<g>
</g>
<g>
</g>
<g>
</g>
<g>
</g>
<g>
</g>
<g>
</g>
<g>
</g>
<g>
</g>
<g>
</g>
<g>
</g>
<g>
</g>
<g>
</g>
<g>
</g>
</svg>
