<?xml version="1.0" encoding="iso-8859-1"?>
<!-- Generator: Adobe Illustrator 16.0.0, SVG Export Plug-In . SVG Version: 6.00 Build 0)  -->
<!DOCTYPE svg PUBLIC "-//W3C//DTD SVG 1.1//EN" "http://www.w3.org/Graphics/SVG/1.1/DTD/svg11.dtd">
<svg version="1.1" id="Capa_1" xmlns="http://www.w3.org/2000/svg" xmlns:xlink="http://www.w3.org/1999/xlink" x="0px" y="0px"
	 width="31.648px" height="31.648px" viewBox="0 0 31.648 31.648" style="enable-background:new 0 0 31.648 31.648;"
	 xml:space="preserve">
<g>
	<path d="M26.516,18.688c1.057-1.797,1.18-4.049,0.307-5.734c-0.083-0.169-0.177-0.333-0.281-0.49
		c0.104-0.157,0.198-0.321,0.281-0.49c0.872-1.685,0.749-3.938-0.318-5.754c-1.031-1.798-2.927-3.029-4.814-3.12
		c-0.155-0.009-0.366-0.01-0.555,0.003c-0.084-0.168-0.18-0.332-0.283-0.493c-0.96-1.536-2.912-2.555-4.978-2.596V0
		c-0.032,0-0.063,0.006-0.096,0.006c-0.002,0-0.003,0-0.005,0v0.001c-2.065,0.041-4.016,1.059-4.976,2.596
		c-0.105,0.161-0.199,0.325-0.283,0.493c-0.188-0.013-0.4-0.012-0.555-0.003C8.07,3.184,6.176,4.415,5.144,6.213
		c-1.067,1.815-1.19,4.069-0.318,5.754c0.083,0.169,0.178,0.333,0.281,0.49c-0.104,0.157-0.198,0.321-0.281,0.49
		c-0.873,1.686-0.75,3.938,0.307,5.734c0.507,0.883,1.217,1.623,2.025,2.166c-1.296,2.4-2.277,7.356-2.277,7.356h3.516l1.787,3.438
		c0,0,1.338-5.201,2.96-7.349c0.802,0.375,1.702,0.593,2.629,0.613v0.012c0.033,0,0.064-0.005,0.097-0.006c0.001,0,0.002,0,0.003,0
		l0,0c0.928-0.021,1.827-0.238,2.629-0.613c1.622,2.146,2.96,7.349,2.96,7.349l1.787-3.438h3.517c0,0-0.98-4.956-2.277-7.356
		C25.297,20.312,26.009,19.57,26.516,18.688z M22.927,16.604c-0.438,0.762-1.111,1.062-1.437,1.078
		c-0.133,0.006-0.194-0.009-0.254-0.031c-0.235-0.088-0.482-0.131-0.728-0.131c-0.401,0-0.799,0.115-1.143,0.342
		c-0.221,0.146-0.466,0.283-0.748,0.419c-0.613,0.295-1.043,0.872-1.148,1.545c-0.012,0.069-0.042,0.144-0.095,0.223
		c-0.193,0.308-0.771,0.681-1.53,0.713c-0.783-0.019-1.378-0.405-1.575-0.719c-0.052-0.079-0.083-0.151-0.094-0.224
		c-0.106-0.672-0.536-1.25-1.149-1.545c-0.282-0.135-0.527-0.271-0.748-0.418c-0.343-0.227-0.741-0.342-1.142-0.342
		c-0.246,0-0.492,0.043-0.728,0.131c-0.06,0.022-0.121,0.037-0.254,0.03c-0.325-0.015-0.998-0.315-1.436-1.077
		c-0.411-0.698-0.369-1.44-0.208-1.746c0.012-0.022,0.023-0.045,0.034-0.067c0.028-0.059,0.069-0.108,0.122-0.15
		c0.525-0.418,0.816-1.062,0.78-1.733l-0.01-0.172c-0.004-0.053-0.009-0.105-0.009-0.159c0-0.166,0.014-0.33,0.026-0.493
		c0.054-0.689-0.239-1.361-0.782-1.789c-0.055-0.045-0.098-0.098-0.128-0.159c-0.01-0.021-0.021-0.043-0.033-0.065
		c-0.159-0.306-0.2-1.05,0.221-1.766c0.427-0.743,1.1-1.045,1.485-1.063c0.083,0,0.151,0.016,0.22,0.049
		c0.643,0.315,1.404,0.277,2.011-0.103c0.183-0.113,0.372-0.217,0.565-0.312c0.674-0.327,1.119-0.993,1.164-1.74
		c0.003-0.059,0.017-0.142,0.116-0.293c0.168-0.271,0.735-0.631,1.508-0.674c0.796,0.03,1.379,0.404,1.551,0.68
		c0.099,0.151,0.112,0.234,0.116,0.293c0.045,0.747,0.489,1.413,1.163,1.74c0.194,0.095,0.384,0.198,0.565,0.312
		c0.607,0.38,1.368,0.418,2.011,0.103c0.069-0.033,0.138-0.049,0.221-0.049c0.385,0.018,1.059,0.319,1.484,1.063
		c0.421,0.716,0.379,1.46,0.219,1.764c-0.012,0.022-0.022,0.044-0.032,0.065c-0.03,0.062-0.073,0.114-0.128,0.159
		c-0.543,0.428-0.836,1.1-0.782,1.789c0.012,0.163,0.025,0.327,0.025,0.493c0,0.054-0.005,0.106-0.009,0.159l-0.01,0.172
		c-0.036,0.67,0.255,1.315,0.78,1.733c0.053,0.042,0.094,0.092,0.122,0.15c0.011,0.022,0.021,0.045,0.033,0.067
		C23.295,15.162,23.337,15.905,22.927,16.604z"/>
</g>
<g>
</g>
<g>
</g>
<g>
</g>
<g>
</g>
<g>
</g>
<g>
</g>
<g>
</g>
<g>
</g>
<g>
</g>
<g>
</g>
<g>
</g>
<g>
</g>
<g>
</g>
<g>
</g>
<g>
</g>
</svg>
