<?xml version="1.0" encoding="iso-8859-1"?>
<!-- Generator: Adobe Illustrator 16.0.0, SVG Export Plug-In . SVG Version: 6.00 Build 0)  -->
<!DOCTYPE svg PUBLIC "-//W3C//DTD SVG 1.1//EN" "http://www.w3.org/Graphics/SVG/1.1/DTD/svg11.dtd">
<svg version="1.1" id="Capa_1" xmlns="http://www.w3.org/2000/svg" xmlns:xlink="http://www.w3.org/1999/xlink" x="0px" y="0px"
	 width="31.999px" height="31.999px" viewBox="0 0 31.999 31.999" style="enable-background:new 0 0 31.999 31.999;"
	 xml:space="preserve">
<g>
	<path d="M31.654,25.122c-0.104-1.061-0.207-2.118-0.312-3.175c0.219-0.869,0.438-1.737,0.657-2.601
		c-0.86-0.365-1.724-0.646-2.592-0.869l0.178-2.972l-0.19-0.046c-0.769-0.186-1.567-0.322-2.398-0.422l2.23-1.859l-9.012-0.942
		l-3.609-8.242L12.4,12.146l-8.414,1.125l2.61,2.652c-1.151-0.095-2.238-0.258-3.266-0.509l-0.274-0.067l-0.176,2.96
		c-0.849-0.22-1.694-0.498-2.536-0.854c0.107,1.003,0.214,2.003,0.322,3C0.444,21.381,0.222,22.307,0,23.229
		c2.439,1.035,4.917,1.44,7.414,1.517c0-0.006,0.001-0.012,0.001-0.019c0.013,0.01,0.025,0.019,0.039,0.025
		c0.049-0.836,0.098-1.672,0.147-2.509c0.294,0.009,0.582,0.022,0.886,0.022c0.332,0,0.665-0.006,0.999-0.017L8.78,28.004
		l7.438-4.044l8.13,4.044l-1.473-6.896c0.206-0.005,0.413-0.009,0.618-0.009c0.294,0,0.573,0.013,0.858,0.021
		C24.3,21.951,24.25,22.78,24.2,23.61c0.014-0.008,0.028-0.016,0.041-0.021c0,0.006,0,0.012-0.001,0.018
		C26.736,23.682,29.214,24.088,31.654,25.122z M15.962,21.215c-2.458,0.286-5,0.582-7.476,0.582c-1.957,0-3.696-0.185-5.311-0.562
		l0.317-5.3c1.628,0.374,3.377,0.556,5.339,0.556c2.503,0,5.059-0.298,7.53-0.585c2.457-0.287,5-0.583,7.476-0.583
		c1.935,0,3.656,0.18,5.254,0.549l-0.317,5.3c-1.611-0.365-3.342-0.543-5.282-0.543C20.99,20.629,18.434,20.926,15.962,21.215z"/>
</g>
<g>
</g>
<g>
</g>
<g>
</g>
<g>
</g>
<g>
</g>
<g>
</g>
<g>
</g>
<g>
</g>
<g>
</g>
<g>
</g>
<g>
</g>
<g>
</g>
<g>
</g>
<g>
</g>
<g>
</g>
</svg>
