<?xml version="1.0" encoding="iso-8859-1"?>
<!-- Generator: Adobe Illustrator 16.0.0, SVG Export Plug-In . SVG Version: 6.00 Build 0)  -->
<!DOCTYPE svg PUBLIC "-//W3C//DTD SVG 1.1//EN" "http://www.w3.org/Graphics/SVG/1.1/DTD/svg11.dtd">
<svg version="1.1" id="Capa_1" xmlns="http://www.w3.org/2000/svg" xmlns:xlink="http://www.w3.org/1999/xlink" x="0px" y="0px"
	 width="31.745px" height="31.745px" viewBox="0 0 31.745 31.745" style="enable-background:new 0 0 31.745 31.745;"
	 xml:space="preserve">
<g>
	<path d="M20.198,16.863l0.885-3.64C23.157,11.419,27.319,7.098,29.444,0c-1.365,0-5.332,0-6.826,0
		c-2.151,6.164-6.482,9.857-6.746,10.077C15.61,9.857,11.279,6.164,9.128,0C7.634,0,3.667,0,2.301,0
		c2.126,7.098,6.288,11.419,8.362,13.224l0.885,3.64c-2.293,1.419-3.829,3.948-3.829,6.838c0,4.435,3.608,8.043,8.042,8.043
		c0.037,0,0.074-0.003,0.11-0.005c0.037,0.002,0.073,0.005,0.111,0.005c4.435,0,8.042-3.608,8.042-8.043
		C24.026,20.812,22.489,18.282,20.198,16.863z M15.827,14.208h0.091h3.52l-0.492,2.022c-0.918-0.365-1.916-0.571-2.962-0.571
		c-0.038,0-0.074,0.004-0.111,0.006c-0.037-0.002-0.073-0.006-0.11-0.006c-1.046,0-2.044,0.206-2.962,0.571l-0.492-2.022H15.827z
		 M15.983,28.331c-0.022,0-0.141-0.015-0.156-0.017c0,0-0.042,0.017-0.065,0.017c-2.552,0-4.629-2.077-4.629-4.63
		s2.077-4.629,4.629-4.629c0.022,0,0.043,0.003,0.065,0.006v0.009c0.016,0,0.031-0.002,0.045-0.004
		c0.015,0.002,0.03,0.004,0.046,0.004v-0.009c0.021-0.003,0.042-0.006,0.065-0.006c2.552,0,4.628,2.076,4.628,4.629
		S18.536,28.331,15.983,28.331z"/>
</g>
<g>
</g>
<g>
</g>
<g>
</g>
<g>
</g>
<g>
</g>
<g>
</g>
<g>
</g>
<g>
</g>
<g>
</g>
<g>
</g>
<g>
</g>
<g>
</g>
<g>
</g>
<g>
</g>
<g>
</g>
</svg>
