<?xml version="1.0" encoding="iso-8859-1"?>
<!-- Generator: Adobe Illustrator 16.0.0, SVG Export Plug-In . SVG Version: 6.00 Build 0)  -->
<!DOCTYPE svg PUBLIC "-//W3C//DTD SVG 1.1//EN" "http://www.w3.org/Graphics/SVG/1.1/DTD/svg11.dtd">
<svg version="1.1" id="Capa_1" xmlns="http://www.w3.org/2000/svg" xmlns:xlink="http://www.w3.org/1999/xlink" x="0px" y="0px"
	 width="32px" height="32px" viewBox="0 0 32 32" style="enable-background:new 0 0 32 32;" xml:space="preserve">
<g>
	<path d="M31.496,19.192c0.168-0.948,0.336-1.895,0.504-2.837c-2.238-0.795-4.479-1.087-6.719-1.092
		c0.006-0.254,0.01-0.51,0.01-0.763c0-3.228-0.336-6.271-0.35-6.398l-0.076-0.688l-0.641-0.267
		c-0.115-0.047-2.922-1.191-8.237-1.191c-5.299,0-8.303,1.132-8.428,1.18L6.906,7.387l-0.09,0.694
		c-0.014,0.108-0.35,2.711-0.328,5.693c0.009,1.243,0.127,2.606,0.23,3.672C4.479,17.442,2.239,17.149,0,16.355
		c0.168,1.063,0.337,2.121,0.505,3.179C0.337,20.424,0.168,21.31,0,22.194c0.967,0.344,1.934,0.592,2.9,0.765
		c0,0.92,0,1.839,0,2.759c8.752,1.569,17.504-3.119,26.257-1.521c0-0.918,0-1.838,0-2.756c0.948,0.173,1.896,0.418,2.843,0.755
		C31.832,21.19,31.664,20.19,31.496,19.192z M9.065,9.126c1.086-0.299,3.47-0.819,6.923-0.819c3.403,0,5.661,0.505,6.69,0.802
		c0.1,1.088,0.264,3.218,0.264,5.393c0,1.247-0.094,2.572-0.183,3.628c-4.438,0.365-8.878,1.561-13.316,1.951
		C9.25,19.2,9.185,18.472,9.121,17.839c-0.109-1.07-0.272-2.687-0.282-4.08C8.825,11.856,8.969,10.084,9.065,9.126z"/>
</g>
<g>
</g>
<g>
</g>
<g>
</g>
<g>
</g>
<g>
</g>
<g>
</g>
<g>
</g>
<g>
</g>
<g>
</g>
<g>
</g>
<g>
</g>
<g>
</g>
<g>
</g>
<g>
</g>
<g>
</g>
</svg>
