<?xml version="1.0" encoding="iso-8859-1"?>
<!-- Generator: Adobe Illustrator 16.0.0, SVG Export Plug-In . SVG Version: 6.00 Build 0)  -->
<!DOCTYPE svg PUBLIC "-//W3C//DTD SVG 1.1//EN" "http://www.w3.org/Graphics/SVG/1.1/DTD/svg11.dtd">
<svg version="1.1" id="Capa_1" xmlns="http://www.w3.org/2000/svg" xmlns:xlink="http://www.w3.org/1999/xlink" x="0px" y="0px"
	 width="32.001px" height="32px" viewBox="0 0 32.001 32" style="enable-background:new 0 0 32.001 32;" xml:space="preserve">
<g>
	<path d="M29.137,16.241c0.182-0.821,0.364-1.643,0.547-2.462c-1.713-0.381-3.439-0.688-5.172-0.924
		c-1.316-3.34-4.656-5.725-8.57-5.725c-3.919,0-7.262,2.393-8.575,5.741c-1.712,0.237-3.417,0.544-5.11,0.921
		c0.183,0.82,0.366,1.642,0.549,2.462C1.867,16.462,0.931,16.688,0,16.942c0.392,0.785,0.778,1.573,1.156,2.363
		c0.075,0.926,0.158,1.852,0.249,2.773c2.228-0.608,4.483-1.075,6.755-1.4c1.622,2.514,4.5,4.193,7.782,4.193
		c3.292,0,6.179-1.692,7.798-4.219c0.004-0.002,0.007-0.004,0.011-0.004c0,0.004-0.001,0.01-0.002,0.016
		c2.302,0.324,4.588,0.797,6.847,1.414c0.09-0.924,0.172-1.848,0.248-2.773c0.379-0.791,0.764-1.578,1.157-2.363
		C31.051,16.682,30.096,16.454,29.137,16.241z M15.942,9.496c2.424,0,4.55,1.219,5.758,3.046c-3.833-0.348-7.69-0.344-11.523,0.011
		C11.383,10.719,13.514,9.496,15.942,9.496z M15.942,22.505c-3.034,0-5.608-1.903-6.487-4.526c4.312-0.492,8.666-0.496,12.979-0.014
		C21.561,20.594,18.98,22.505,15.942,22.505z"/>
</g>
<g>
</g>
<g>
</g>
<g>
</g>
<g>
</g>
<g>
</g>
<g>
</g>
<g>
</g>
<g>
</g>
<g>
</g>
<g>
</g>
<g>
</g>
<g>
</g>
<g>
</g>
<g>
</g>
<g>
</g>
</svg>
