<?xml version="1.0" encoding="iso-8859-1"?>
<!-- Generator: Adobe Illustrator 16.0.0, SVG Export Plug-In . SVG Version: 6.00 Build 0)  -->
<!DOCTYPE svg PUBLIC "-//W3C//DTD SVG 1.1//EN" "http://www.w3.org/Graphics/SVG/1.1/DTD/svg11.dtd">
<svg version="1.1" id="Capa_1" xmlns="http://www.w3.org/2000/svg" xmlns:xlink="http://www.w3.org/1999/xlink" x="0px" y="0px"
	 width="32px" height="32px" viewBox="0 0 32 32" style="enable-background:new 0 0 32 32;" xml:space="preserve">
<g>
	<g>
		<path d="M15.678,24.573c-0.08,0.127-0.183,0.229-0.308,0.304c-0.125,0.076-0.266,0.13-0.421,0.162
			c-0.155,0.031-0.315,0.047-0.479,0.042v0.933h1.056v2.598h1.348v-4.508H15.81C15.802,24.29,15.757,24.445,15.678,24.573z"/>
		<path d="M18.674,21.152v-1.717l0.457-0.014c0,0,7.369-7.148,6.854-15.182C24.607,2.289,22.627,0,22.627,0L16,0.003L9.373,0
			c0,0-1.98,2.289-3.357,4.24C5.5,12.274,12.87,19.422,12.87,19.422l0.456,0.014v1.717c-1.91,0.925-3.234,2.877-3.234,5.138
			c0,3.149,2.561,5.71,5.71,5.71c0.067,0,0.133-0.006,0.198-0.01c0.066,0.004,0.132,0.01,0.199,0.01c3.148,0,5.71-2.561,5.71-5.71
			C21.908,24.029,20.584,22.077,18.674,21.152z M9.201,5.251c1.951-2.346,0-0.05,1.951-2.288l4.801,0.003H16h0.047l4.8-0.003
			c1.951,2.238,0-0.058,1.951,2.288c0.352,5.456-4.85,11.284-4.85,11.284L16,16.538l-1.949-0.003
			C14.051,16.535,8.85,10.707,9.201,5.251z M16.198,29.936c-0.052,0-0.102-0.009-0.151-0.016v-0.01
			c-0.016,0.001-0.031,0.003-0.047,0.005c-0.016-0.002-0.031-0.004-0.047-0.005v0.01c-0.05,0.007-0.1,0.016-0.151,0.016
			c-2.01,0-3.644-1.636-3.644-3.646s1.634-3.644,3.644-3.644c0.052,0,0.102,0.008,0.151,0.015v0.01
			c0.016-0.001,0.031-0.003,0.047-0.005c0.016,0.002,0.032,0.004,0.047,0.005v-0.01c0.05-0.007,0.1-0.015,0.151-0.015
			c2.01,0,3.644,1.634,3.644,3.644S18.208,29.936,16.198,29.936z"/>
	</g>
</g>
<g>
</g>
<g>
</g>
<g>
</g>
<g>
</g>
<g>
</g>
<g>
</g>
<g>
</g>
<g>
</g>
<g>
</g>
<g>
</g>
<g>
</g>
<g>
</g>
<g>
</g>
<g>
</g>
<g>
</g>
</svg>
