<?xml version="1.0" encoding="iso-8859-1"?>
<!-- Generator: Adobe Illustrator 16.0.0, SVG Export Plug-In . SVG Version: 6.00 Build 0)  -->
<!DOCTYPE svg PUBLIC "-//W3C//DTD SVG 1.1//EN" "http://www.w3.org/Graphics/SVG/1.1/DTD/svg11.dtd">
<svg version="1.1" id="Capa_1" xmlns="http://www.w3.org/2000/svg" xmlns:xlink="http://www.w3.org/1999/xlink" x="0px" y="0px"
	 width="31.035px" height="31.035px" viewBox="0 0 31.035 31.035" style="enable-background:new 0 0 31.035 31.035;"
	 xml:space="preserve">
<g>
	<g>
		<polygon points="25.771,12.739 18.746,12.152 15.506,4.791 12.29,12.136 5.265,12.724 10.346,18.048 8.889,26.229 15.511,22.416 
			22.146,26.244 20.689,18.064 		"/>
		<path d="M31.016,12.756l-4.652-0.012c0,0,0.006,0.021-2.12,2.37C31.755,15.64,31.016,12.756,31.016,12.756z"/>
		<path d="M23.955,15.735c0,0-0.046,0.031-2.304,2.35c7.513,0.526,6.955-2.337,6.955-2.337L23.955,15.735z"/>
		<path d="M21.995,21.604c3.571-0.396,4.352-2.582,4.352-2.582h-4.711C21.636,19.023,21.616,19.023,21.995,21.604z"/>
		<path d="M22.461,24.219c1.658-0.087,2.78-2.146,2.78-2.146l-3.162-0.015C22.08,22.059,22.087,22.073,22.461,24.219z"/>
		<path d="M6.793,15.098c-2.126-2.349-2.121-2.37-2.121-2.37L0.02,12.74C0.02,12.74-0.719,15.624,6.793,15.098z"/>
		<path d="M9.384,18.068c-2.257-2.317-2.303-2.35-2.303-2.35l-4.652,0.012C2.429,15.731,1.873,18.596,9.384,18.068z"/>
		<path d="M9.4,19.007l-4.711-0.001c0,0,0.78,2.186,4.352,2.582C9.42,19.008,9.4,19.007,9.4,19.007z"/>
		<path d="M5.794,22.057c0,0,1.122,2.061,2.78,2.146c0.375-2.146,0.382-2.161,0.382-2.161L5.794,22.057z"/>
	</g>
</g>
<g>
</g>
<g>
</g>
<g>
</g>
<g>
</g>
<g>
</g>
<g>
</g>
<g>
</g>
<g>
</g>
<g>
</g>
<g>
</g>
<g>
</g>
<g>
</g>
<g>
</g>
<g>
</g>
<g>
</g>
</svg>
