<?xml version="1.0" encoding="iso-8859-1"?>
<!-- Generator: Adobe Illustrator 16.0.0, SVG Export Plug-In . SVG Version: 6.00 Build 0)  -->
<!DOCTYPE svg PUBLIC "-//W3C//DTD SVG 1.1//EN" "http://www.w3.org/Graphics/SVG/1.1/DTD/svg11.dtd">
<svg version="1.1" id="Capa_1" xmlns="http://www.w3.org/2000/svg" xmlns:xlink="http://www.w3.org/1999/xlink" x="0px" y="0px"
	 width="32.01px" height="32.01px" viewBox="0 0 32.01 32.01" style="enable-background:new 0 0 32.01 32.01;" xml:space="preserve"
	>
<g>
	<g>
		<path d="M15.593,21.281c-0.123,0.195-0.28,0.351-0.471,0.466c-0.193,0.116-0.408,0.198-0.646,0.248
			c-0.238,0.05-0.483,0.071-0.734,0.063v1.428h1.618v3.979h2.062v-6.905h-1.626C15.783,20.848,15.714,21.086,15.593,21.281z"/>
		<path d="M16.048,0.011V0H3.436v3.945h2.07v6.87l9.355,4.133v1.31c-3.472,0.848-6.759,4.092-6.759,7.814
			c0,4.348,3.519,7.886,7.859,7.924v0.013c0.006,0,0.012,0.001,0.018,0.001c4.373,0,7.93-3.557,7.93-7.928
			c0-3.723-3.287-6.968-6.76-7.814v-1.31l9.355-4.133v-6.87h2.07V0.011H16.048z M21.371,24.083c0,2.949-2.381,5.347-5.323,5.385
			v-0.006c-0.006,0-0.012,0.002-0.018,0.002c-2.973,0-5.393-2.418-5.393-5.392c0-2.948,2.382-5.346,5.323-5.385v0.006
			c0.006,0,0.012-0.002,0.018-0.002C18.953,18.691,21.371,21.111,21.371,24.083z M23.969,9.171l-7.951,3.501L8.042,9.161V4.042
			h7.919v0.011h8.007L23.969,9.171L23.969,9.171z"/>
	</g>
</g>
<g>
</g>
<g>
</g>
<g>
</g>
<g>
</g>
<g>
</g>
<g>
</g>
<g>
</g>
<g>
</g>
<g>
</g>
<g>
</g>
<g>
</g>
<g>
</g>
<g>
</g>
<g>
</g>
<g>
</g>
</svg>
