<?xml version="1.0" encoding="iso-8859-1"?>
<!-- Generator: Adobe Illustrator 16.0.0, SVG Export Plug-In . SVG Version: 6.00 Build 0)  -->
<!DOCTYPE svg PUBLIC "-//W3C//DTD SVG 1.1//EN" "http://www.w3.org/Graphics/SVG/1.1/DTD/svg11.dtd">
<svg version="1.1" id="Capa_1" xmlns="http://www.w3.org/2000/svg" xmlns:xlink="http://www.w3.org/1999/xlink" x="0px" y="0px"
	 width="31.935px" height="31.936px" viewBox="0 0 31.935 31.936" style="enable-background:new 0 0 31.935 31.936;"
	 xml:space="preserve">
<g>
	<path d="M20.027,19.532l0.651-1.489L30.926,4.652L27.531,0L15.967,0.005L4.404,0L1.009,4.652l10.248,13.391l0.651,1.489
		c-1.689,1.256-2.789,3.26-2.789,5.521c0,3.784,3.069,6.863,6.849,6.883c3.779-0.02,6.85-3.099,6.85-6.883
		C22.816,22.792,21.716,20.788,20.027,19.532z M7.799,4.59h8.168h8.168l-8.168,9.487L7.799,4.59z M18.943,18.043l-0.244,0.711
		c-0.836-0.37-1.76-0.579-2.731-0.584c-0.972,0.005-1.895,0.214-2.732,0.584l-0.244-0.711h2.976H18.943z M15.967,28.916
		c-2.116-0.02-3.831-1.742-3.831-3.863c0-2.119,1.715-3.844,3.831-3.863c2.116,0.02,3.831,1.744,3.831,3.863
		C19.799,27.173,18.083,28.896,15.967,28.916z"/>
</g>
<g>
</g>
<g>
</g>
<g>
</g>
<g>
</g>
<g>
</g>
<g>
</g>
<g>
</g>
<g>
</g>
<g>
</g>
<g>
</g>
<g>
</g>
<g>
</g>
<g>
</g>
<g>
</g>
<g>
</g>
</svg>
