<?xml version="1.0" encoding="iso-8859-1"?>
<!-- Generator: Adobe Illustrator 16.0.0, SVG Export Plug-In . SVG Version: 6.00 Build 0)  -->
<!DOCTYPE svg PUBLIC "-//W3C//DTD SVG 1.1//EN" "http://www.w3.org/Graphics/SVG/1.1/DTD/svg11.dtd">
<svg version="1.1" id="Capa_1" xmlns="http://www.w3.org/2000/svg" xmlns:xlink="http://www.w3.org/1999/xlink" x="0px" y="0px"
	 width="31.862px" height="31.861px" viewBox="0 0 31.862 31.861" style="enable-background:new 0 0 31.862 31.861;"
	 xml:space="preserve">
<g>
	<g>
		<path d="M20.303,16.438l7.569-12.74L25.879,0H5.983L3.989,3.698l7.569,12.741h8.746V16.438z M19.189,5.992l-3.258,6.276
			l-3.257-6.276C12.732,5.992,19.131,5.992,19.189,5.992z"/>
		<path d="M21.776,15.342l-1.885,3.299c-1.108-0.828-2.461-1.328-3.924-1.418h-0.072c-1.463,0.09-2.815,0.592-3.925,1.418
			l-1.884-3.299l-1.772,0.887l2.176,3.881c-0.932,1.232-1.492,2.761-1.492,4.422c0,3.898,3.056,7.087,6.897,7.322v0.008
			c0.012,0,0.023-0.004,0.036-0.004c0.013,0,0.024,0.004,0.036,0.004v-0.008c3.842-0.235,6.897-3.424,6.897-7.322
			c0-1.661-0.561-3.188-1.492-4.422l2.176-3.881L21.776,15.342z M15.931,29.193c-2.398-0.215-4.291-2.209-4.291-4.662
			s1.893-4.448,4.291-4.662c2.398,0.214,4.291,2.209,4.291,4.662S18.33,28.979,15.931,29.193z"/>
	</g>
</g>
<g>
</g>
<g>
</g>
<g>
</g>
<g>
</g>
<g>
</g>
<g>
</g>
<g>
</g>
<g>
</g>
<g>
</g>
<g>
</g>
<g>
</g>
<g>
</g>
<g>
</g>
<g>
</g>
<g>
</g>
</svg>
