<?xml version="1.0" encoding="iso-8859-1"?>
<!-- Generator: Adobe Illustrator 16.0.0, SVG Export Plug-In . SVG Version: 6.00 Build 0)  -->
<!DOCTYPE svg PUBLIC "-//W3C//DTD SVG 1.1//EN" "http://www.w3.org/Graphics/SVG/1.1/DTD/svg11.dtd">
<svg version="1.1" id="Capa_1" xmlns="http://www.w3.org/2000/svg" xmlns:xlink="http://www.w3.org/1999/xlink" x="0px" y="0px"
	 width="32px" height="32px" viewBox="0 0 32 32" style="enable-background:new 0 0 32 32;" xml:space="preserve">
<g>
	<path d="M28.86,4.102V0.01h-4.168v2.783c-0.807-0.169-1.772-0.333-2.883-0.47V0.01h-4.168v2.002
		c-0.477-0.015-0.965-0.022-1.476-0.022c-0.69,0-1.344,0.018-1.979,0.042V0.01h-4.17v2.365C8.971,2.512,8.062,2.672,7.29,2.832V0
		H3.122l0.013,4.076L3.13,4.078l0.006,0.855l0.002,0.755h0.004c0.018,2.375,0.1,11.21,0.1,15.058S7.615,32,15.957,32
		c8.017,0,12.901-7.607,12.901-11.24s0.021-16.652,0.021-16.652L28.86,4.102z M15.957,28.666c-6.432,0-9.379-6.227-9.379-7.92
		c0-1.694-0.039-6.79-0.07-10.941h19.036c0,0-0.021,9.337-0.021,10.956S22.571,28.666,15.957,28.666z"/>
</g>
<g>
</g>
<g>
</g>
<g>
</g>
<g>
</g>
<g>
</g>
<g>
</g>
<g>
</g>
<g>
</g>
<g>
</g>
<g>
</g>
<g>
</g>
<g>
</g>
<g>
</g>
<g>
</g>
<g>
</g>
</svg>
