<?xml version="1.0" encoding="iso-8859-1"?>
<!-- Generator: Adobe Illustrator 16.0.0, SVG Export Plug-In . SVG Version: 6.00 Build 0)  -->
<!DOCTYPE svg PUBLIC "-//W3C//DTD SVG 1.1//EN" "http://www.w3.org/Graphics/SVG/1.1/DTD/svg11.dtd">
<svg version="1.1" id="Capa_1" xmlns="http://www.w3.org/2000/svg" xmlns:xlink="http://www.w3.org/1999/xlink" x="0px" y="0px"
	 width="32px" height="32.001px" viewBox="0 0 32 32.001" style="enable-background:new 0 0 32 32.001;" xml:space="preserve">
<g>
	<g>
		<path d="M9.173,10.104c0,4.367,2.904,7.919,6.473,7.919c3.443,0,6.258-3.309,6.454-7.46c0.492-0.551,1.141-1.636,1.141-3.54
			c0-3.066-2.86-6.192-5.131-6.812c-1.162-0.317-3.479-0.473-5.368,1.003c-0.375,0.108-1.174-0.029-1.533,0.117
			c-1.52,0.62-1.653,1.19-2.271,2.566C7.985,6.018,8.579,8.323,9.187,9.8C9.184,9.901,9.173,10.001,9.173,10.104z M15.646,16.605
			c-2.789,0-5.058-2.916-5.058-6.502c0-0.477,0.043-0.939,0.119-1.386C11,8.057,11.399,7.369,11.95,6.781
			c0.521-0.556,1.735-1.44,2-1.293c0.265,0.147-0.235,1.43-0.825,2.786c1.651,0.06,2.388-2.608,2.388-2.608s0.413,1.474-0.354,2.92
			c1.769-0.385,2.3-3.038,2.3-3.038s0.561,1.533-0.441,3.067c2.358-0.384,1.887-2.949,1.887-2.949s1.59,0.723,1.742,3.523
			c0.051,0.387,0.057,0.604,0.057,0.914C20.705,13.689,18.436,16.605,15.646,16.605z"/>
		<circle cx="15.865" cy="26.017" r="1.437"/>
		<path d="M20.252,18.151c-2.127,0.133-4.113,1.283-4.251,1.366c-0.123-0.072-1.664-0.968-3.475-1.277
			c0.979,1.794,3.382,3.556,3.382,3.556S19.321,19.488,20.252,18.151z"/>
		<path d="M15.865,23.521c0.403,0,0.782,0.098,1.12,0.268l0.17-0.719h-2.36l0.152,0.628C15.231,23.586,15.541,23.521,15.865,23.521z
			"/>
		<path d="M28.667,21.147c-1.605-1.996-4.439-2.662-6.323-2.891c-1.146,2.336-4.214,4.156-4.698,4.585l-0.281,1.185
			c0.604,0.455,0.998,1.177,0.998,1.991c0,1.375-1.121,2.496-2.497,2.496c-1.376,0-2.496-1.121-2.496-2.496
			c0-0.896,0.477-1.683,1.188-2.123l-0.274-1.13c-0.042-0.036-2.6-1.863-4.346-4.538c-1.872,0.194-4.914,0.819-6.603,2.921
			c-1.73,2.153-1.436,6.096-1.621,10.854c1.495,0,7.899,0,14.272,0c0.01,0,0.02,0,0.03,0c6.373,0,12.777,0,14.272,0
			C30.104,27.243,30.397,23.301,28.667,21.147z"/>
	</g>
</g>
<g>
</g>
<g>
</g>
<g>
</g>
<g>
</g>
<g>
</g>
<g>
</g>
<g>
</g>
<g>
</g>
<g>
</g>
<g>
</g>
<g>
</g>
<g>
</g>
<g>
</g>
<g>
</g>
<g>
</g>
</svg>
