<?xml version="1.0" encoding="iso-8859-1"?>
<!-- Generator: Adobe Illustrator 16.0.0, SVG Export Plug-In . SVG Version: 6.00 Build 0)  -->
<!DOCTYPE svg PUBLIC "-//W3C//DTD SVG 1.1//EN" "http://www.w3.org/Graphics/SVG/1.1/DTD/svg11.dtd">
<svg version="1.1" id="Capa_1" xmlns="http://www.w3.org/2000/svg" xmlns:xlink="http://www.w3.org/1999/xlink" x="0px" y="0px"
	 width="32px" height="32px" viewBox="0 0 32 32" style="enable-background:new 0 0 32 32;" xml:space="preserve">
<g>
	<g>
		<polygon points="5.083,17.219 8.422,15.405 10.918,16.647 11.068,15.427 7.098,11.393 12.764,10.635 12.875,10.42 10.216,10.143 
			8.596,6.442 6.708,10.102 2.932,10.606 5.566,13.284 		"/>
		<polygon points="32,19.997 29.1,19.997 29.1,17.24 25.947,17.24 25.082,13.192 28.148,10.636 24.104,10.215 22.484,6.515 
			20.596,10.174 17.943,10.527 18.014,10.685 24.169,11.329 19.499,15.221 19.84,16.819 22.309,15.477 25.854,17.24 19.49,17.24 
			19.023,15.056 23.109,11.651 17.719,11.087 15.56,6.156 13.043,11.032 8.009,11.706 11.521,15.273 11.279,17.24 2.842,17.24 
			2.842,19.997 0,19.997 0.504,22.828 0,25.836 7.559,25.836 7.559,25.819 7.6,25.844 7.597,23.078 24.402,23.078 24.4,25.844 
			24.439,25.819 24.439,25.836 32,25.836 31.494,22.828 		"/>
	</g>
</g>
<g>
</g>
<g>
</g>
<g>
</g>
<g>
</g>
<g>
</g>
<g>
</g>
<g>
</g>
<g>
</g>
<g>
</g>
<g>
</g>
<g>
</g>
<g>
</g>
<g>
</g>
<g>
</g>
<g>
</g>
</svg>
