<?xml version="1.0" encoding="iso-8859-1"?>
<!-- Generator: Adobe Illustrator 16.0.0, SVG Export Plug-In . SVG Version: 6.00 Build 0)  -->
<!DOCTYPE svg PUBLIC "-//W3C//DTD SVG 1.1//EN" "http://www.w3.org/Graphics/SVG/1.1/DTD/svg11.dtd">
<svg version="1.1" id="Capa_1" xmlns="http://www.w3.org/2000/svg" xmlns:xlink="http://www.w3.org/1999/xlink" x="0px" y="0px"
	 width="32px" height="32px" viewBox="0 0 32 32" style="enable-background:new 0 0 32 32;" xml:space="preserve">
<g>
	<path d="M31.495,18.804c0.168-1.2,0.336-2.45,0.505-3.688c-0.967,0.275-1.934,0.485-2.9,0.643c0-1.216,0-2.518,0-3.913
		c-1.234,0.087-2.47,0.173-3.705,0.259c-0.181-1.876-0.343-3.262-0.357-3.392l-0.061-0.519l-0.5-0.153
		c-0.024-0.008-2.569-0.282-2.569-2.422v-0.8h-0.8c-0.5,0-2.156,0.021-4.924,0.064L15.97,4.887l-0.237-0.004
		c-2.768-0.043-4.424-0.064-4.924-0.064h-0.8v0.8c0,2.121-2.468,2.39-2.57,2.422L6.94,8.194L6.879,8.713
		c-0.019,0.159-0.256,2.199-0.48,4.72c-1.186,0.082-2.371,0.165-3.556,0.248c0,0.497,0,1.072,0,1.711
		C1.895,15.517,0.948,15.688,0,15.919c0.168,0.658,0.336,1.307,0.505,1.998C0.336,18.714,0.168,19.511,0,20.24
		c2.003,0.14,4.006,0.278,6.009,0.419c0.108,2.938,8.375,6.525,9.92,6.521c1.574-0.002,8.745-3.063,9.667-5.151
		c2.135,0.149,4.27,0.297,6.404,0.445C31.832,21.199,31.663,20.003,31.495,18.804z M8.415,9.377
		c0.904-0.396,2.731-0.899,3.121-2.952c0.823,0.009,2.22,0.029,4.173,0.06l0.262,0.003l0.238-0.003
		c1.954-0.03,3.35-0.051,4.173-0.06c0.39,2.053,2.216,2.557,3.121,2.952c0.063,0.566,0.174,1.595,0.294,2.84
		c-5.26,0.367-10.52,0.734-15.779,1.102C8.174,11.585,8.333,10.103,8.415,9.377z M15.93,25.744c-1.173-0.006-8.327-3.219-8.33-5.224
		c0-0.01,0-0.018,0-0.027c0-0.808,0.034-1.734,0.086-2.703c5.54,0.324,11.08,1.657,16.621,1.862
		c0.006,0.299,0.012,0.591,0.012,0.865C24.316,22.523,17.145,25.749,15.93,25.744z"/>
</g>
<g>
</g>
<g>
</g>
<g>
</g>
<g>
</g>
<g>
</g>
<g>
</g>
<g>
</g>
<g>
</g>
<g>
</g>
<g>
</g>
<g>
</g>
<g>
</g>
<g>
</g>
<g>
</g>
<g>
</g>
</svg>
