<?xml version="1.0" encoding="iso-8859-1"?>
<!-- Generator: Adobe Illustrator 16.0.0, SVG Export Plug-In . SVG Version: 6.00 Build 0)  -->
<!DOCTYPE svg PUBLIC "-//W3C//DTD SVG 1.1//EN" "http://www.w3.org/Graphics/SVG/1.1/DTD/svg11.dtd">
<svg version="1.1" id="Capa_1" xmlns="http://www.w3.org/2000/svg" xmlns:xlink="http://www.w3.org/1999/xlink" x="0px" y="0px"
	 width="32.498px" height="32.498px" viewBox="0 0 32.498 32.498" style="enable-background:new 0 0 32.498 32.498;"
	 xml:space="preserve">
<g>
	<g>
		<path d="M32.494,16.128H29.65V13.37h-4.389v-1.46c0-1.589,1.422-1.635,1.584-1.635h0.594V5.371L16.261,5.362l0,0h-0.014h-0.014
			l0,0L5.054,5.371v4.904h0.594c0.162,0,1.585,0.046,1.585,1.635v1.46h-4.39v2.757H0l0.505,2.83L0,21.966l7.714-0.01
			c0.722,1.842,2.28,2.073,3.801,2.428c0.255,0.061,0.512,0.119,0.768,0.188c2.012,0.527,3.459,2.542,3.474,2.564h0.478l0,0h0.014
			h0.014l0,0h0.478c0.015-0.022,1.462-2.037,3.474-2.564c0.256-0.066,0.514-0.127,0.768-0.188c1.521-0.354,3.08-0.586,3.802-2.428
			l7.714,0.01l-0.505-3.009L32.494,16.128z M24.073,19.538c0,2.903-1.412,3.233-3.365,3.689c-0.265,0.062-0.531,0.125-0.799,0.193
			c-1.681,0.441-2.975,1.734-3.648,2.545v-0.014c-0.004,0.005-0.009,0.01-0.014,0.016c-0.005-0.004-0.01-0.011-0.014-0.016v0.014
			c-0.674-0.81-1.968-2.103-3.648-2.543c-0.268-0.07-0.535-0.134-0.799-0.194c-1.953-0.456-3.365-0.786-3.365-3.689V19.21h7.813
			h0.027h7.813L24.073,19.538L24.073,19.538z M24.073,11.91v1.46H16.26h-0.027H8.421v-1.46c0-1.847-1.271-2.543-2.179-2.75v-2.6
			l10.005-0.009l10.005,0.009v2.6C25.346,9.367,24.073,10.064,24.073,11.91z"/>
		<path d="M18.939,8.89c-0.642-0.014-1.316-0.019-1.999-0.022c-0.101-0.297-0.362-0.509-0.681-0.554V8.307
			c-0.005,0-0.009,0.003-0.014,0.003s-0.009-0.003-0.014-0.003v0.007c-0.318,0.044-0.58,0.256-0.681,0.554
			c-0.682,0.004-1.357,0.009-1.999,0.022c-0.868,0.014-1.678,0.052-2.372,0.071C9.793,9.015,8.867,9.087,8.867,9.087
			s0.926,0.071,2.314,0.125c0.694,0.02,1.504,0.057,2.372,0.071c0.632,0.014,1.297,0.019,1.969,0.022
			c0.07,0.347,0.357,0.602,0.711,0.651v0.007c0.005,0,0.009-0.003,0.014-0.003s0.009,0.003,0.014,0.003V9.956
			c0.354-0.049,0.641-0.304,0.711-0.651c0.672-0.004,1.336-0.009,1.969-0.022c0.867-0.014,1.678-0.051,2.371-0.071
			c1.39-0.054,2.314-0.125,2.314-0.125s-0.926-0.071-2.314-0.125C20.618,8.942,19.809,8.904,18.939,8.89z"/>
	</g>
</g>
<g>
</g>
<g>
</g>
<g>
</g>
<g>
</g>
<g>
</g>
<g>
</g>
<g>
</g>
<g>
</g>
<g>
</g>
<g>
</g>
<g>
</g>
<g>
</g>
<g>
</g>
<g>
</g>
<g>
</g>
</svg>
