<?xml version="1.0" encoding="iso-8859-1"?>
<!-- Generator: Adobe Illustrator 16.0.0, SVG Export Plug-In . SVG Version: 6.00 Build 0)  -->
<!DOCTYPE svg PUBLIC "-//W3C//DTD SVG 1.1//EN" "http://www.w3.org/Graphics/SVG/1.1/DTD/svg11.dtd">
<svg version="1.1" id="Capa_1" xmlns="http://www.w3.org/2000/svg" xmlns:xlink="http://www.w3.org/1999/xlink" x="0px" y="0px"
	 width="31.324px" height="31.324px" viewBox="0 0 31.324 31.324" style="enable-background:new 0 0 31.324 31.324;"
	 xml:space="preserve">
<g>
	<path d="M25.358,10.038l-0.065-0.554L24.76,9.32c-0.026-0.008-2.744-0.871-2.744-3.156V5.31h-2.042l1.397-5.201l-3.402,2.767
		l-2.239-2.862V0l-0.005,0.006L15.719,0v0.013l-2.24,2.862l-3.401-2.767l1.398,5.202H9.309v0.854c0,2.265-2.636,3.122-2.745,3.156
		L6.03,9.484l-0.065,0.554c-0.038,0.326-0.94,8.048-0.94,12.608c0,3.237,3.718,4.943,6.707,6.314
		c1.236,0.566,3.926,2.363,3.926,2.363s2.78-1.835,3.934-2.363c2.988-1.371,6.707-3.077,6.707-6.314
		C26.297,18.086,25.396,10.364,25.358,10.038z M7.605,10.748c0.966-0.423,2.916-1.531,3.333-3.723c0.879,0.009,8.569,0.009,9.448,0
		c0.416,2.191,2.367,3.3,3.332,3.723c0.041,0.361,0.101,0.903,0.168,1.563H7.438C7.505,11.651,7.564,11.109,7.605,10.748z
		 M7.189,14.866h0.943l-1.052,1.247C7.116,15.687,7.152,15.271,7.189,14.866z M6.913,18.324l2.917-3.458h1.562l-4.595,5.448
		C6.826,19.669,6.866,18.998,6.913,18.324z M6.734,22.646c0-0.08,0.002-0.168,0.002-0.25l6.351-7.529h1.516l-7.542,8.943
		C6.854,23.445,6.734,23.059,6.734,22.646z M7.907,24.816l8.394-9.95h1.888L9.068,25.68C8.639,25.408,8.247,25.121,7.907,24.816z
		 M11.43,26.938c-0.407-0.191-0.816-0.395-1.216-0.604l9.67-11.467h1.727L11.43,26.938z M12.65,27.502l10.657-12.636h0.827
		c0.035,0.385,0.07,0.779,0.104,1.185L14.027,28.156C13.604,27.943,13.142,27.729,12.65,27.502z M18.274,27.688
		c-1.073,0.496-1.989,0.953-2.613,1.473c-0.145-0.121-0.311-0.237-0.485-0.354l9.205-10.914c0.058,0.806,0.107,1.611,0.145,2.383
		L18.274,27.688z M21.113,26.331l3.471-4.115c0.002,0.146,0.004,0.292,0.004,0.431C24.588,24.178,22.967,25.355,21.113,26.331z"/>
</g>
<g>
</g>
<g>
</g>
<g>
</g>
<g>
</g>
<g>
</g>
<g>
</g>
<g>
</g>
<g>
</g>
<g>
</g>
<g>
</g>
<g>
</g>
<g>
</g>
<g>
</g>
<g>
</g>
<g>
</g>
</svg>
