<?xml version="1.0" encoding="iso-8859-1"?>
<!-- Generator: Adobe Illustrator 16.0.0, SVG Export Plug-In . SVG Version: 6.00 Build 0)  -->
<!DOCTYPE svg PUBLIC "-//W3C//DTD SVG 1.1//EN" "http://www.w3.org/Graphics/SVG/1.1/DTD/svg11.dtd">
<svg version="1.1" id="Capa_1" xmlns="http://www.w3.org/2000/svg" xmlns:xlink="http://www.w3.org/1999/xlink" x="0px" y="0px"
	 width="32px" height="32px" viewBox="0 0 32 32" style="enable-background:new 0 0 32 32;" xml:space="preserve">
<g>
	<g>
		<path d="M22.659,2.556h-6.651h-0.001h-6.65c0,0-1.015,2.021-2.408,2.204C2.009,24.105,16,28.884,16.007,28.887h0.001
			c0.008-0.003,13.999-4.781,9.06-24.127C23.672,4.576,22.659,2.556,22.659,2.556z"/>
		<path d="M27.403,3.131L27.27,2.619l-0.523-0.068c-0.995-0.128-1.97-1.614-2.231-2.125L24.295,0H7.717L7.5,0.427
			c-0.261,0.51-1.229,1.995-2.231,2.124L4.744,2.619L4.611,3.131c-5.982,23.032,11,28.751,11.174,28.803L16.011,32l0.226-0.068
			C16.41,31.878,33.34,25.988,27.403,3.131z M16.007,30.35C13.96,29.557,1.103,23.716,6.011,3.978
			c1.286-0.436,2.217-1.721,2.641-2.412h14.71c0.424,0.691,1.354,1.977,2.641,2.412C30.912,23.717,18.053,29.557,16.007,30.35z"/>
	</g>
</g>
<g>
</g>
<g>
</g>
<g>
</g>
<g>
</g>
<g>
</g>
<g>
</g>
<g>
</g>
<g>
</g>
<g>
</g>
<g>
</g>
<g>
</g>
<g>
</g>
<g>
</g>
<g>
</g>
<g>
</g>
</svg>
