<?xml version="1.0" encoding="iso-8859-1"?>
<!-- Generator: Adobe Illustrator 16.0.0, SVG Export Plug-In . SVG Version: 6.00 Build 0)  -->
<!DOCTYPE svg PUBLIC "-//W3C//DTD SVG 1.1//EN" "http://www.w3.org/Graphics/SVG/1.1/DTD/svg11.dtd">
<svg version="1.1" id="Capa_1" xmlns="http://www.w3.org/2000/svg" xmlns:xlink="http://www.w3.org/1999/xlink" x="0px" y="0px"
	 width="32px" height="32px" viewBox="0 0 32 32" style="enable-background:new 0 0 32 32;" xml:space="preserve">
<g>
	<path d="M32,14.3c-0.598-0.397-1.18-0.816-1.747-1.258c-0.524,0.417-1.058,0.8-1.596,1.167c-0.281-1.219-0.564-2.502-0.847-3.33
		c-0.408,0.275-0.824,0.529-1.24,0.775c-0.221-2.354-0.43-4.148-0.448-4.306L26.055,6.77l-0.557-0.171
		c-0.027-0.008-2.868-0.91-2.868-3.297V2.409H9.354v0.893c0,2.366-2.754,3.262-2.868,3.298L5.929,6.77L5.861,7.348
		c-0.018,0.158-0.227,1.947-0.448,4.297c-0.422-0.25-0.842-0.509-1.257-0.789c-0.282,0.827-0.565,2.11-0.849,3.329
		c-0.525-0.361-1.047-0.736-1.56-1.144C1.181,13.483,0.597,13.902,0,14.3c0.002,0.968,0.024,2.642,0.065,3.623
		c1.567,1.247,3.191,2.286,4.852,3.137c0.389,3.037,4.018,4.707,6.969,6.061c1.292,0.594,4.103,2.471,4.103,2.471
		s2.904-1.918,4.109-2.471c2.948-1.354,6.573-3.02,6.969-6.05c1.666-0.853,3.297-1.896,4.869-3.147
		C31.979,16.941,31.999,15.267,32,14.3z M7.574,8.091c1.009-0.442,3.047-1.6,3.481-3.89c0.92,0.01,8.953,0.01,9.871,0
		c0.436,2.29,2.475,3.447,3.482,3.89c0.092,0.821,0.273,2.51,0.451,4.481c-5.746,2.765-11.992,2.762-17.736-0.009
		C7.302,10.596,7.482,8.91,7.574,8.091z M19.354,25.496c-1.394,0.64-2.59,1.188-3.361,1.831c-0.771-0.643-1.969-1.191-3.361-1.831
		c-2.657-1.219-5.965-2.735-5.965-4.976c0-0.528,0.013-1.106,0.035-1.711c6.044,2.693,12.539,2.697,18.584,0.007
		c0.021,0.602,0.035,1.178,0.035,1.704C25.318,22.761,22.012,24.277,19.354,25.496z"/>
</g>
<g>
</g>
<g>
</g>
<g>
</g>
<g>
</g>
<g>
</g>
<g>
</g>
<g>
</g>
<g>
</g>
<g>
</g>
<g>
</g>
<g>
</g>
<g>
</g>
<g>
</g>
<g>
</g>
<g>
</g>
</svg>
