<?xml version="1.0" encoding="iso-8859-1"?>
<!-- Generator: Adobe Illustrator 16.0.0, SVG Export Plug-In . SVG Version: 6.00 Build 0)  -->
<!DOCTYPE svg PUBLIC "-//W3C//DTD SVG 1.1//EN" "http://www.w3.org/Graphics/SVG/1.1/DTD/svg11.dtd">
<svg version="1.1" id="Capa_1" xmlns="http://www.w3.org/2000/svg" xmlns:xlink="http://www.w3.org/1999/xlink" x="0px" y="0px"
	 width="32.205px" height="32.206px" viewBox="0 0 32.205 32.206" style="enable-background:new 0 0 32.205 32.206;"
	 xml:space="preserve">
<g>
	<path d="M32.205,15.921c-1.311-0.863-3.016-1.639-4.408-2.205l0.299-1.009c0,0-0.488-0.306-1.381-0.72
		c0.027-1.179-0.076-2.408-0.357-3.689l-0.098-0.44l-0.346-0.288c-2.836-2.36-6.223-3.618-9.802-3.654V3.911
		c-3.586,0.033-6.979,1.292-9.82,3.655L5.945,7.854L5.849,8.292c-0.283,1.282-0.386,2.511-0.359,3.69
		c-0.893,0.414-1.381,0.72-1.381,0.72l0.299,1.009C3.015,14.278,1.31,15.054,0,15.917c0.504,0.367,2.027,1.698,2.027,1.698
		l-0.131,2.563c0,0,3.86-1.705,5.005-2.09c2.673,5.969,8.213,9.566,8.553,9.783l0.64,0.407v0.016l0.013-0.008l0.005,0.003v-0.006
		l0.64-0.407c0.34-0.216,5.88-3.813,8.553-9.782c1.146,0.383,5.006,2.09,5.006,2.09L30.18,17.62
		C30.178,17.619,31.701,16.288,32.205,15.921z M16.105,25.111c-1.579-1.19-5.218-4.278-6.986-8.628
		c1.81-0.44,4.139-0.847,6.602-0.847c0.125,0,0.249,0.006,0.373,0.008v0.005c0.13-0.002,0.26-0.009,0.39-0.009
		c2.463,0,4.792,0.407,6.602,0.847C21.318,20.833,17.688,23.917,16.105,25.111z M16.221,9.731c-0.037,0-0.073,0.002-0.109,0.002
		V9.729c-0.043,0-0.084-0.003-0.127-0.003c-3.152,0-5.833,0.58-7.847,1.228c0.026-0.54,0.086-1.09,0.189-1.651
		c2.283-1.779,4.957-2.727,7.768-2.762v0.004c2.817,0.031,5.498,0.979,7.785,2.763c0.103,0.561,0.163,1.111,0.188,1.651
		C22.055,10.312,19.373,9.731,16.221,9.731z"/>
</g>
<g>
</g>
<g>
</g>
<g>
</g>
<g>
</g>
<g>
</g>
<g>
</g>
<g>
</g>
<g>
</g>
<g>
</g>
<g>
</g>
<g>
</g>
<g>
</g>
<g>
</g>
<g>
</g>
<g>
</g>
</svg>
