<?xml version="1.0" encoding="iso-8859-1"?>
<!-- Generator: Adobe Illustrator 16.0.0, SVG Export Plug-In . SVG Version: 6.00 Build 0)  -->
<!DOCTYPE svg PUBLIC "-//W3C//DTD SVG 1.1//EN" "http://www.w3.org/Graphics/SVG/1.1/DTD/svg11.dtd">
<svg version="1.1" id="Capa_1" xmlns="http://www.w3.org/2000/svg" xmlns:xlink="http://www.w3.org/1999/xlink" x="0px" y="0px"
	 width="31.812px" height="31.813px" viewBox="0 0 31.812 31.813" style="enable-background:new 0 0 31.812 31.813;"
	 xml:space="preserve">
<g>
	<path d="M31.309,10.241l0.504-2.831h-2.217V2.864h-13.69v0.011H2.217v4.546H0l0.504,2.831L0,13.26h6.03
		c-0.212,2.39-0.409,5.184-0.409,7.288c0,3.146,3.611,4.801,6.514,6.133c1.116,0.512,3.447,2.053,3.772,2.269v-0.012
		c0.329-0.22,2.655-1.757,3.771-2.267c2.902-1.332,6.514-2.988,6.514-6.135c0-2.104-0.196-4.897-0.408-7.287h6.029L31.309,10.241z
		 M18.986,25.162c-1.271,0.583-2.363,1.087-3.082,1.67v0.011c-0.718-0.584-1.809-1.086-3.079-1.67
		c-2.471-1.134-5.545-2.543-5.545-4.625c0-2.783,0.368-6.933,0.634-9.563l15.981-0.011c0.267,2.632,0.635,6.782,0.635,9.564
		C24.531,22.618,21.457,24.028,18.986,25.162z M28.488,9.866L3.323,9.877V3.981h12.584V3.97h12.581V9.866z"/>
</g>
<g>
</g>
<g>
</g>
<g>
</g>
<g>
</g>
<g>
</g>
<g>
</g>
<g>
</g>
<g>
</g>
<g>
</g>
<g>
</g>
<g>
</g>
<g>
</g>
<g>
</g>
<g>
</g>
<g>
</g>
</svg>
