<?xml version="1.0" encoding="iso-8859-1"?>
<!-- Generator: Adobe Illustrator 16.0.0, SVG Export Plug-In . SVG Version: 6.00 Build 0)  -->
<!DOCTYPE svg PUBLIC "-//W3C//DTD SVG 1.1//EN" "http://www.w3.org/Graphics/SVG/1.1/DTD/svg11.dtd">
<svg version="1.1" id="Capa_1" xmlns="http://www.w3.org/2000/svg" xmlns:xlink="http://www.w3.org/1999/xlink" x="0px" y="0px"
	 width="31.999px" height="31.999px" viewBox="0 0 31.999 31.999" style="enable-background:new 0 0 31.999 31.999;"
	 xml:space="preserve">
<g>
	<g>
		<path d="M29.067,19.777c-0.113-2.18-0.82-4.205-1.977-5.903c-1.234-1.813-2.971-3.243-5.004-4.123l-0.737-3.009L20.795,0
			l-3.42,6.127L11.4,1.847L9.52,8.449L2.899,5.428l3.975,5.763l0.874,2.859l0.058-0.017c-0.109,0.165-0.223,0.327-0.323,0.498
			c-0.788,1.338-1.317,2.841-1.513,4.451c-0.055,0.461-0.094,0.93-0.094,1.406c0,2.57,0.851,4.937,2.269,6.861
			c1.404,1.907,3.368,3.367,5.655,4.139c1.16,0.389,2.397,0.61,3.688,0.61c1.743,0,3.394-0.397,4.879-1.091
			c1.613-0.75,3.029-1.854,4.14-3.221c1.617-1.996,2.594-4.535,2.594-7.301C29.098,20.184,29.079,19.982,29.067,19.777z
			 M26.709,19.777l-2.385,4.137l1.572,2.722c-1.059,1.423-2.463,2.565-4.091,3.306l-1.198-2.073h-4.774l-1.468,2.541
			c-2.28-0.716-4.228-2.187-5.547-4.12l1.833-3.17l-2.389-4.137H7.102c0.219-1.629,0.805-3.146,1.686-4.45h3.34l1.191-2.065
			l6.379-1.812l2.238,3.877h4.25c1.021,1.513,1.648,3.312,1.764,5.247h-1.24V19.777z"/>
		<polygon points="15.102,16.115 12.713,20.25 15.102,24.384 19.875,24.384 22.26,20.25 19.875,16.115 		"/>
	</g>
</g>
<g>
</g>
<g>
</g>
<g>
</g>
<g>
</g>
<g>
</g>
<g>
</g>
<g>
</g>
<g>
</g>
<g>
</g>
<g>
</g>
<g>
</g>
<g>
</g>
<g>
</g>
<g>
</g>
<g>
</g>
</svg>
