<?xml version="1.0" encoding="iso-8859-1"?>
<!-- Generator: Adobe Illustrator 16.0.0, SVG Export Plug-In . SVG Version: 6.00 Build 0)  -->
<!DOCTYPE svg PUBLIC "-//W3C//DTD SVG 1.1//EN" "http://www.w3.org/Graphics/SVG/1.1/DTD/svg11.dtd">
<svg version="1.1" id="Capa_1" xmlns="http://www.w3.org/2000/svg" xmlns:xlink="http://www.w3.org/1999/xlink" x="0px" y="0px"
	 width="32px" height="32px" viewBox="0 0 32 32" style="enable-background:new 0 0 32 32;" xml:space="preserve">
<g>
	<path d="M28.438,18.428v-3.02L32,12.44l-11.372-1.189L16.072,0.849l-5.309,10.288l-10.619,1.42l4.428,4.499
		c-0.603-0.053-1.189-0.131-1.766-0.236l-0.405-0.074v2.998c-0.8-0.162-1.6-0.369-2.401-0.653c0.163,0.969,0.325,1.936,0.487,2.897
		c-0.162,0.918-0.324,1.83-0.487,2.74c2.285,0.811,4.569,1.077,6.854,1.049l-0.66,5.375l9.387-5.104l10.262,5.104l-1.598-7.476
		c2.217-0.011,4.435,0.266,6.649,1.052c-0.164-1.025-0.326-2.048-0.487-3.068c0.161-0.858,0.323-1.716,0.487-2.568
		C30.075,18.8,29.257,18.59,28.438,18.428z M3.089,17.565c1.094,0.178,2.223,0.262,3.44,0.262c3.003,0,6.041-0.539,8.979-1.061
		c2.908-0.516,5.915-1.05,8.858-1.05c1.2,0,2.311,0.086,3.384,0.262v4.94c-1.075-0.17-2.188-0.252-3.384-0.252
		c-3.003,0-6.041,0.539-8.979,1.061c-2.907,0.516-5.915,1.049-8.857,1.049c-1.221,0-2.35-0.089-3.441-0.271V17.565z"/>
</g>
<g>
</g>
<g>
</g>
<g>
</g>
<g>
</g>
<g>
</g>
<g>
</g>
<g>
</g>
<g>
</g>
<g>
</g>
<g>
</g>
<g>
</g>
<g>
</g>
<g>
</g>
<g>
</g>
<g>
</g>
</svg>
