<?xml version="1.0" encoding="iso-8859-1"?>
<!-- Generator: Adobe Illustrator 16.0.0, SVG Export Plug-In . SVG Version: 6.00 Build 0)  -->
<!DOCTYPE svg PUBLIC "-//W3C//DTD SVG 1.1//EN" "http://www.w3.org/Graphics/SVG/1.1/DTD/svg11.dtd">
<svg version="1.1" id="Capa_1" xmlns="http://www.w3.org/2000/svg" xmlns:xlink="http://www.w3.org/1999/xlink" x="0px" y="0px"
	 width="32px" height="32px" viewBox="0 0 32 32" style="enable-background:new 0 0 32 32;" xml:space="preserve">
<g>
	<path d="M24.528,12.789c-0.004-0.015-0.012-0.023-0.018-0.036c-0.014-0.032-0.025-0.063-0.037-0.095
		c-0.146-0.464-0.158-0.923-0.037-1.286l0.01-0.025c0.078-0.234,0.1-0.515,0.047-0.813l0,0v-0.001
		c-0.006-0.038-0.016-0.077-0.022-0.115l-0.002-0.014c-0.009-0.033-0.021-0.068-0.028-0.104l-0.007-0.025
		c-0.009-0.029-0.021-0.06-0.028-0.09l-0.015-0.039l-0.028-0.072l-0.023-0.057L24.315,9.97c-0.012-0.027-0.023-0.053-0.037-0.078
		l-0.006-0.013c-0.061-0.117-0.131-0.232-0.212-0.343l-0.015-0.021l-0.008-0.011c-0.221-0.3-0.486-0.532-0.76-0.686
		c-0.271-0.154-0.554-0.227-0.812-0.225h-0.002c-0.006,0-0.012-0.001-0.016-0.001c-0.013,0.001-0.021,0.001-0.033,0h-0.004
		c-0.109,0.003-0.228-0.012-0.344-0.034V0l-6.114,2.159L10.204,0v8.484C9.992,8.559,9.783,8.6,9.587,8.594H9.583
		c-0.012,0.001-0.021,0.001-0.033,0c-0.005,0-0.01,0.001-0.016,0.001H9.533C9.272,8.593,8.992,8.665,8.72,8.82
		c-0.273,0.153-0.539,0.385-0.76,0.685L7.952,9.516l-0.014,0.02c-0.081,0.11-0.151,0.226-0.212,0.343L7.72,9.892
		C7.707,9.917,7.695,9.942,7.683,9.97l-0.021,0.047l-0.023,0.057L7.61,10.146l-0.014,0.039c-0.01,0.03-0.02,0.061-0.029,0.09
		L7.559,10.3c-0.01,0.035-0.019,0.07-0.028,0.104l-0.002,0.014c-0.008,0.038-0.017,0.077-0.023,0.115v0.001l0,0
		c-0.052,0.299-0.032,0.579,0.047,0.813l0.01,0.025c0.121,0.363,0.109,0.822-0.037,1.286C7.513,12.69,7.5,12.721,7.488,12.753
		c-0.006,0.013-0.014,0.021-0.018,0.036c-0.232,0.661-1.457,1.072-1.457,2.592c0,1.452,0.949,1.854,1.28,2.317
		c0.087,0.149,0.161,0.312,0.22,0.489c0.021,0.065,0.039,0.131,0.055,0.196l-0.004,0.001c0.082,0.389,0.069,0.764-0.037,1.067
		l-0.002,0.003c-0.002,0.011-0.006,0.021-0.01,0.029c-0.002,0.006-0.003,0.012-0.005,0.017l-0.001,0.002
		c-0.082,0.247-0.098,0.537-0.036,0.845s0.201,0.631,0.419,0.934L7.9,21.293l0.014,0.02c0.081,0.111,0.17,0.215,0.262,0.308
		l0.01,0.009c0.021,0.021,0.042,0.041,0.063,0.061l0.04,0.035l0.045,0.041l0.061,0.049l0.033,0.024l0.076,0.056l0.021,0.015
		c0.03,0.021,0.061,0.04,0.09,0.06l0.012,0.006c0.035,0.021,0.068,0.039,0.104,0.059l0,0l0.001,0.001
		c0.269,0.141,0.821,0.274,1.298,0.28V32l5.773-3.914L21.892,32v-9.668c0.379-0.012,1.107-0.161,1.376-0.302l0.001-0.001l0,0
		c0.035-0.02,0.068-0.036,0.104-0.059l0.013-0.006c0.028-0.02,0.06-0.039,0.09-0.06l0.021-0.015l0.076-0.056l0.033-0.024l0.061-0.05
		l0.046-0.04l0.04-0.035c0.021-0.02,0.041-0.039,0.062-0.061l0.01-0.009c0.092-0.093,0.182-0.195,0.263-0.308l0.014-0.02
		l0.009-0.012c0.217-0.303,0.356-0.627,0.418-0.935c0.062-0.307,0.047-0.597-0.035-0.843l-0.002-0.002
		c-0.002-0.005-0.002-0.012-0.004-0.016c-0.005-0.01-0.009-0.021-0.011-0.03l-0.002-0.003c-0.104-0.305-0.119-0.68-0.037-1.067
		l-0.004-0.001c0.017-0.064,0.033-0.131,0.056-0.195c0.059-0.178,0.133-0.342,0.219-0.49c0.332-0.465,1.281-0.865,1.281-2.317
		C25.985,13.861,24.761,13.45,24.528,12.789z M18.728,21.963c-0.865,0.365-1.781,0.553-2.729,0.557
		c-0.946-0.004-1.863-0.19-2.729-0.557c-0.843-0.355-1.6-0.865-2.25-1.518c-0.65-0.65-1.16-1.407-1.518-2.252
		c-0.105-0.248-0.195-0.5-0.271-0.758l0,0c-0.084-0.309-0.285-1.134-0.285-1.998c0-1.095,0.285-1.998,0.285-1.998
		c0.076-0.257,0.166-0.51,0.271-0.759c0.357-0.843,0.867-1.599,1.518-2.25c0.65-0.65,1.407-1.161,2.25-1.518
		c0.866-0.364,1.783-0.551,2.729-0.555c0.946,0.004,1.864,0.19,2.729,0.556c0.844,0.356,1.6,0.867,2.25,1.518
		s1.161,1.407,1.518,2.25c0.105,0.249,0.195,0.502,0.271,0.759c0,0,0.285,0.903,0.285,1.998c0,0.864-0.201,1.689-0.285,1.999l0,0
		c-0.076,0.258-0.166,0.51-0.271,0.758c-0.355,0.844-0.866,1.602-1.518,2.252C20.327,21.098,19.571,21.607,18.728,21.963z"/>
</g>
<g>
</g>
<g>
</g>
<g>
</g>
<g>
</g>
<g>
</g>
<g>
</g>
<g>
</g>
<g>
</g>
<g>
</g>
<g>
</g>
<g>
</g>
<g>
</g>
<g>
</g>
<g>
</g>
<g>
</g>
</svg>
