<?xml version="1.0" encoding="iso-8859-1"?>
<!-- Generator: Adobe Illustrator 16.0.0, SVG Export Plug-In . SVG Version: 6.00 Build 0)  -->
<!DOCTYPE svg PUBLIC "-//W3C//DTD SVG 1.1//EN" "http://www.w3.org/Graphics/SVG/1.1/DTD/svg11.dtd">
<svg version="1.1" id="Capa_1" xmlns="http://www.w3.org/2000/svg" xmlns:xlink="http://www.w3.org/1999/xlink" x="0px" y="0px"
	 width="32px" height="32px" viewBox="0 0 32 32" style="enable-background:new 0 0 32 32;" xml:space="preserve">
<g>
	<g>
		<path d="M0.963,7.409c0,0-2.301,3.55,6.028,4.786c0.38-3.4,0.366-3.3,0.366-3.3L0.963,7.409z"/>
		<path d="M6.649,16.449c0.229-3.342,0.247-3.36,0.247-3.36l-6.503-1.653C0.394,11.436-1.68,15.215,6.649,16.449z"/>
		<path d="M6.594,17.267l-6.428-1.615c0,0-1.808,3.874,6.522,5.109C6.46,20.494,6.594,17.267,6.594,17.267z"/>
		<path d="M23.748,8.93l-0.425-0.131c-0.089-0.027-2.197-0.713-2.197-2.525V5.59L10.875,5.596V6.28c0,1.813-2.108,2.498-2.196,2.525
			L8.252,8.936L8.2,9.379c-0.03,0.261-0.752,6.44-0.752,10.088c0,2.59,2.976,3.955,5.366,5.053c0.989,0.453,3.142,1.891,3.142,1.891
			s0.027-0.019,0.049-0.031c0.018,0.012,0.04,0.025,0.04,0.025s2.154-1.438,3.142-1.892c2.392-1.096,5.365-2.462,5.365-5.052
			c0-3.648-0.721-9.827-0.751-10.088L23.748,8.93z M18.616,23.271c-1.066,0.488-1.983,0.909-2.575,1.4
			c-0.008-0.007-0.018-0.014-0.028-0.02v-0.015c-0.003,0.002-0.006,0.005-0.009,0.007c-0.006-0.004-0.013-0.009-0.018-0.013v0.024
			c-0.01,0.007-0.02,0.014-0.029,0.021c-0.59-0.492-1.507-0.912-2.574-1.401c-2.035-0.935-4.568-2.097-4.568-3.81
			c0-3.041,0.534-8.063,0.697-9.52c0.772-0.339,2.333-1.226,2.666-2.979c0.703,0.008,6.939,0.002,7.645-0.006
			c0.332,1.754,1.894,2.641,2.667,2.979c0.161,1.458,0.695,6.479,0.695,9.52C23.186,21.174,20.651,22.336,18.616,23.271z"/>
		<path d="M31.038,7.403L24.644,8.89c0,0-0.015-0.101,0.365,3.3C33.339,10.954,31.038,7.403,31.038,7.403z"/>
		<path d="M31.605,11.43l-6.503,1.653c0,0,0.02,0.019,0.247,3.36C33.68,15.209,31.605,11.43,31.605,11.43z"/>
		<path d="M31.835,15.646l-6.428,1.615c0,0,0.133,3.228-0.096,3.494C33.642,19.52,31.835,15.646,31.835,15.646z"/>
	</g>
</g>
<g>
</g>
<g>
</g>
<g>
</g>
<g>
</g>
<g>
</g>
<g>
</g>
<g>
</g>
<g>
</g>
<g>
</g>
<g>
</g>
<g>
</g>
<g>
</g>
<g>
</g>
<g>
</g>
<g>
</g>
</svg>
