<?xml version="1.0" encoding="iso-8859-1"?>
<!-- Generator: Adobe Illustrator 16.0.0, SVG Export Plug-In . SVG Version: 6.00 Build 0)  -->
<!DOCTYPE svg PUBLIC "-//W3C//DTD SVG 1.1//EN" "http://www.w3.org/Graphics/SVG/1.1/DTD/svg11.dtd">
<svg version="1.1" id="Capa_1" xmlns="http://www.w3.org/2000/svg" xmlns:xlink="http://www.w3.org/1999/xlink" x="0px" y="0px"
	 width="32.005px" height="32.005px" viewBox="0 0 32.005 32.005" style="enable-background:new 0 0 32.005 32.005;"
	 xml:space="preserve">
<g>
	<path d="M29.667,11.774c-0.008-0.023-0.021-0.037-0.03-0.058c-0.02-0.051-0.039-0.101-0.058-0.152
		c-0.233-0.743-0.254-1.479-0.06-2.061l0.014-0.04c0.128-0.375,0.158-0.826,0.076-1.304l0,0V8.157
		c-0.012-0.061-0.024-0.123-0.037-0.184l-0.006-0.021c-0.012-0.055-0.027-0.11-0.043-0.166l-0.012-0.041
		c-0.014-0.047-0.031-0.097-0.048-0.144l-0.022-0.062l-0.045-0.115l-0.037-0.091l-0.034-0.076c-0.021-0.043-0.039-0.084-0.06-0.126
		l-0.012-0.019c-0.096-0.188-0.207-0.373-0.339-0.55l-0.021-0.033L28.88,6.512c-0.354-0.48-0.776-0.853-1.215-1.098
		c-0.438-0.247-0.888-0.364-1.304-0.36h-0.002c-0.01,0-0.019,0-0.027-0.002c-0.018,0.002-0.034,0.003-0.053,0.001h-0.006
		C25.76,5.067,25.182,4.9,24.63,4.582l-0.003,0.004c-0.092-0.055-0.184-0.115-0.273-0.179c-0.627-0.463-1.071-1.05-1.256-1.634
		l-0.014-0.042c-0.116-0.378-0.354-0.76-0.701-1.099l-0.002-0.001c-0.045-0.045-0.091-0.088-0.139-0.128l-0.014-0.014
		c-0.045-0.037-0.088-0.073-0.135-0.108l-0.033-0.027l-0.121-0.088l-0.056-0.038L21.779,1.16l-0.082-0.05l-0.074-0.042
		c-0.041-0.024-0.082-0.045-0.124-0.066l-0.021-0.011c-0.187-0.094-0.386-0.179-0.597-0.247l-0.036-0.013l-0.021-0.007
		c-0.569-0.179-1.133-0.231-1.629-0.173c-0.5,0.06-0.934,0.227-1.268,0.476l-0.002,0.002h-0.001
		c-0.006,0.006-0.015,0.011-0.021,0.016c-0.012,0.013-0.027,0.021-0.043,0.031l-0.006,0.003c-0.407,0.315-0.975,0.52-1.604,0.586
		v0.006C16.169,1.681,16.084,1.682,16,1.683c-0.084-0.001-0.168-0.002-0.25-0.011V1.666c-0.632-0.067-1.198-0.271-1.606-0.586
		L14.14,1.076c-0.016-0.01-0.03-0.019-0.043-0.031c-0.007-0.004-0.016-0.01-0.021-0.016h-0.001l-0.002-0.002
		c-0.333-0.249-0.767-0.416-1.267-0.476c-0.496-0.058-1.06-0.006-1.629,0.173l-0.021,0.007l-0.037,0.013
		c-0.211,0.067-0.41,0.152-0.597,0.247l-0.02,0.011c-0.042,0.021-0.083,0.042-0.123,0.066L10.304,1.11l-0.082,0.05l-0.105,0.068
		l-0.054,0.038L9.94,1.354L9.906,1.381C9.86,1.416,9.817,1.452,9.772,1.489L9.757,1.504c-0.048,0.04-0.094,0.083-0.139,0.128
		L9.616,1.633C9.271,1.972,9.031,2.354,8.915,2.732L8.901,2.774c-0.183,0.584-0.629,1.17-1.256,1.634
		c-0.09,0.064-0.182,0.124-0.273,0.179L7.369,4.582C6.819,4.9,6.239,5.066,5.725,5.053H5.72c-0.018,0.001-0.035,0-0.052-0.001
		C5.659,5.053,5.649,5.053,5.641,5.053H5.638C5.223,5.05,4.773,5.167,4.335,5.413C3.897,5.659,3.474,6.031,3.12,6.512L3.106,6.529
		L3.084,6.562c-0.132,0.177-0.243,0.362-0.339,0.55l-0.01,0.019c-0.021,0.042-0.041,0.083-0.06,0.126L2.64,7.333L2.603,7.424
		L2.558,7.539L2.535,7.601C2.519,7.649,2.502,7.698,2.488,7.745L2.477,7.786c-0.016,0.056-0.03,0.111-0.044,0.166L2.429,7.973
		C2.414,8.035,2.401,8.097,2.392,8.157v0.002H2.39C2.308,8.638,2.339,9.088,2.466,9.464l0.015,0.04
		c0.194,0.582,0.175,1.317-0.06,2.061c-0.018,0.052-0.038,0.102-0.058,0.152c-0.01,0.021-0.022,0.034-0.03,0.058
		C1.962,12.833,0,13.492,0,15.928c0,2.325,1.521,2.968,2.05,3.712c0.141,0.238,0.26,0.501,0.354,0.783
		c0.035,0.106,0.063,0.211,0.086,0.315l-0.006,0.003c0.133,0.621,0.111,1.222-0.06,1.709l-0.001,0.005
		c-0.004,0.017-0.01,0.033-0.017,0.048c-0.003,0.009-0.005,0.019-0.009,0.026l-0.001,0.003c-0.132,0.395-0.156,0.858-0.058,1.351
		c0.099,0.493,0.322,1.012,0.67,1.495l0.015,0.02l0.021,0.031c0.13,0.178,0.272,0.343,0.42,0.49l0.017,0.016
		C3.513,25.967,3.547,26,3.582,26.032l0.063,0.057l0.073,0.063l0.096,0.079l0.053,0.041l0.123,0.089l0.035,0.021
		c0.049,0.033,0.096,0.063,0.145,0.096l0.018,0.011c0.056,0.033,0.109,0.062,0.165,0.093h0.001h0.002
		c0.429,0.225,0.865,0.335,1.262,0.329l0.043-0.002c0.613-0.005,1.307,0.239,1.941,0.691c0.631,0.472,1.078,1.066,1.256,1.657
		l0.002,0.005c0.007,0.018,0.012,0.034,0.014,0.051c0.004,0.009,0.009,0.018,0.011,0.024l0.001,0.003
		c0.125,0.396,0.379,0.785,0.749,1.125c0.37,0.339,0.856,0.627,1.424,0.813c0.21,0.067,0.421,0.117,0.628,0.149l0.021,0.005
		c0.047,0.007,0.093,0.013,0.139,0.018l0.085,0.01l0.098,0.008l0.124,0.009l0.066,0.001h0.15l0.043-0.001
		c0.058-0.004,0.115-0.006,0.171-0.012l0.021-0.001c0.064-0.006,0.127-0.015,0.189-0.021l0,0h0.002
		c0.48-0.072,0.896-0.241,1.215-0.479l0.033-0.024c0.488-0.362,1.187-0.573,1.958-0.582c0.771,0.009,1.471,0.22,1.958,0.582
		l0.033,0.024c0.317,0.237,0.733,0.406,1.215,0.479h0.002l0,0c0.063,0.008,0.125,0.017,0.188,0.021l0.021,0.001
		c0.058,0.006,0.114,0.008,0.172,0.012l0.043,0.001h0.15l0.065-0.001l0.125-0.009l0.098-0.008l0.085-0.01
		c0.047-0.005,0.092-0.011,0.139-0.018l0.021-0.005c0.207-0.032,0.418-0.082,0.629-0.149c0.566-0.187,1.054-0.475,1.423-0.813
		c0.37-0.34,0.625-0.729,0.75-1.125l0.002-0.003c0.001-0.008,0.006-0.017,0.01-0.024c0.002-0.017,0.007-0.033,0.015-0.051
		l0.002-0.005c0.178-0.591,0.625-1.187,1.256-1.657c0.635-0.452,1.328-0.696,1.94-0.691l0.044,0.002
		c0.396,0.006,0.832-0.104,1.262-0.329h0.002l0,0c0.057-0.03,0.109-0.06,0.166-0.093l0.018-0.011
		c0.049-0.031,0.098-0.062,0.145-0.096l0.035-0.021l0.123-0.089l0.053-0.041l0.097-0.079l0.073-0.063l0.063-0.057
		c0.034-0.031,0.068-0.063,0.103-0.097l0.016-0.016c0.148-0.147,0.29-0.312,0.42-0.49l0.021-0.031l0.015-0.02
		c0.349-0.483,0.571-1.002,0.67-1.495c0.101-0.49,0.074-0.956-0.058-1.351l-0.002-0.003c-0.004-0.009-0.004-0.019-0.008-0.026
		c-0.007-0.015-0.014-0.031-0.017-0.048l-0.002-0.005c-0.171-0.487-0.192-1.088-0.06-1.709l-0.006-0.003
		c0.022-0.104,0.051-0.209,0.086-0.315c0.094-0.282,0.213-0.545,0.354-0.783c0.527-0.744,2.05-1.388,2.05-3.712
		C32,13.492,30.038,12.833,29.667,11.774z M27.426,19.394L27.426,19.394c-0.128,0.435-0.279,0.859-0.458,1.279
		c-0.602,1.424-1.464,2.702-2.562,3.803c-1.098,1.097-2.377,1.96-3.801,2.561c-1.459,0.617-3.01,0.933-4.605,0.938
		c-1.598-0.006-3.146-0.32-4.606-0.938c-1.423-0.601-2.702-1.464-3.8-2.561c-0.655-0.657-1.216-1.385-1.698-2.161H9.27
		c0.104,0.006,0.204,0.009,0.302,0.009c0.234,0,0.469-0.014,0.695-0.028c0.199-0.012,0.391-0.021,0.566-0.021h0.081
		c0.167,0.035,0.335,0.054,0.509,0.072c0.156,0.017,0.316,0.033,0.486,0.064c0.189,0.038,0.385,0.223,0.575,0.401
		c0.11,0.104,0.218,0.203,0.324,0.28c0.108,0.075,0.214,0.152,0.321,0.231c0.33,0.239,0.672,0.488,1.059,0.661
		c0.478,0.206,1.005,0.272,1.517,0.339c0.248,0.032,0.495,0.062,0.731,0.111c0.153,0.017,0.285,0.03,0.42,0.047
		c0.4,0.045,0.814,0.093,1.229,0.093c0.281,0,0.526-0.022,0.755-0.067c0.817-0.231,1.337-0.895,1.337-1.655
		c0.416-0.164,0.787-0.513,1.021-0.955c0.209-0.397,0.28-0.822,0.204-1.198c0.789-0.517,1.195-1.483,0.978-2.313
		c0.349-0.238,0.588-0.641,0.671-1.129c0.116-0.677-0.093-1.396-0.529-1.831c-0.582-0.553-1.385-0.688-2.092-0.804
		c-0.111-0.02-0.222-0.039-0.33-0.058c-0.078-0.021-0.182-0.044-0.283-0.068c-0.944-0.22-1.611-0.434-1.613-1.207
		c-0.002-0.509,0.166-0.979,0.342-1.479c0.203-0.572,0.414-1.165,0.381-1.855c-0.064-1.229-0.586-2.298-1.396-2.862
		c-0.322-0.258-0.749-0.411-1.153-0.411c-0.602,0-1.052,0.327-1.234,0.898c-0.129,0.385-0.107,0.759-0.086,1.155
		c0.006,0.097,0.012,0.197,0.016,0.301c0.023,0.545-0.043,0.996-0.202,1.422c-0.302,0.851-0.907,1.643-1.401,2.239l-0.271,0.341
		c-0.378,0.477-0.769,0.97-1.212,1.365c-0.219,0.173-0.451,0.234-0.751,0.3c-0.083,0.003-0.931,0.027-1.253,0.027
		c-0.173,0-0.367,0.007-0.57,0.028l-5.25,0.05c0.132-1.257,0.415-2.162,0.415-2.162c0.128-0.433,0.28-0.86,0.458-1.28
		c0.603-1.423,1.463-2.701,2.562-3.8c1.098-1.097,2.377-1.96,3.8-2.562c1.46-0.617,3.009-0.932,4.606-0.938
		c1.597,0.006,3.146,0.32,4.606,0.938c1.424,0.602,2.701,1.465,3.8,2.562c1.098,1.099,1.96,2.377,2.562,3.8
		c0.178,0.42,0.33,0.848,0.459,1.28c0,0,0.48,1.525,0.48,3.374C27.907,17.48,27.568,18.872,27.426,19.394z"/>
</g>
<g>
</g>
<g>
</g>
<g>
</g>
<g>
</g>
<g>
</g>
<g>
</g>
<g>
</g>
<g>
</g>
<g>
</g>
<g>
</g>
<g>
</g>
<g>
</g>
<g>
</g>
<g>
</g>
<g>
</g>
</svg>
