<?xml version="1.0" encoding="iso-8859-1"?>
<!-- Generator: Adobe Illustrator 16.0.0, SVG Export Plug-In . SVG Version: 6.00 Build 0)  -->
<!DOCTYPE svg PUBLIC "-//W3C//DTD SVG 1.1//EN" "http://www.w3.org/Graphics/SVG/1.1/DTD/svg11.dtd">
<svg version="1.1" id="Capa_1" xmlns="http://www.w3.org/2000/svg" xmlns:xlink="http://www.w3.org/1999/xlink" x="0px" y="0px"
	 width="32px" height="32px" viewBox="0 0 32 32" style="enable-background:new 0 0 32 32;" xml:space="preserve">
<g>
	<g>
		<circle cx="16.281" cy="6.185" r="2.698"/>
		<polygon points="22.695,27.488 22.695,25.627 20.37,25.627 20.37,22.79 18.796,22.783 18.886,12.837 19.352,19.068 20.887,19.395 
			21.49,11.255 19.816,9.859 14.096,9.534 11.863,6 12.607,0.371 11.025,0 9.025,5.721 11.397,11.209 13.32,22.533 13.364,22.79 
			11.629,22.79 11.629,25.627 9.305,25.627 9.305,27.488 8.188,27.488 8.188,32 15.843,32 16.156,32 23.812,32 23.812,27.488 		"/>
	</g>
</g>
<g>
</g>
<g>
</g>
<g>
</g>
<g>
</g>
<g>
</g>
<g>
</g>
<g>
</g>
<g>
</g>
<g>
</g>
<g>
</g>
<g>
</g>
<g>
</g>
<g>
</g>
<g>
</g>
<g>
</g>
</svg>
